<mxfile host="65bd71144e" pages="4">
    <diagram id="bSsPgsvvMrai05UD9yOp" name="Page-1">
        <mxGraphModel dx="833" dy="617" grid="1" gridSize="10" guides="1" tooltips="1" connect="1" arrows="1" fold="1" page="1" pageScale="1" pageWidth="850" pageHeight="1100" math="0" shadow="0">
            <root>
                <mxCell id="0"/>
                <mxCell id="1" parent="0"/>
                <mxCell id="2" value="" style="rounded=0;whiteSpace=wrap;html=1;fontSize=14;" parent="1" vertex="1">
                    <mxGeometry x="670" y="250" width="120" height="80" as="geometry"/>
                </mxCell>
                <mxCell id="4" value="" style="rounded=0;whiteSpace=wrap;html=1;align=left;verticalAlign=top;fontSize=14;" parent="1" vertex="1">
                    <mxGeometry x="670" y="450" width="120" height="130" as="geometry"/>
                </mxCell>
                <mxCell id="5" value="" style="rounded=0;whiteSpace=wrap;html=1;align=left;verticalAlign=top;fontSize=14;" parent="1" vertex="1">
                    <mxGeometry x="670" y="720" width="120" height="180" as="geometry"/>
                </mxCell>
                <mxCell id="6" value="" style="rounded=0;whiteSpace=wrap;html=1;fontSize=14;" parent="1" vertex="1">
                    <mxGeometry x="1120" y="470" width="120" height="100" as="geometry"/>
                </mxCell>
                <mxCell id="7" value="" style="rounded=0;whiteSpace=wrap;html=1;fontSize=14;" parent="1" vertex="1">
                    <mxGeometry x="900" y="470" width="120" height="100" as="geometry"/>
                </mxCell>
                <mxCell id="8" value="" style="rounded=0;whiteSpace=wrap;html=1;fontSize=14;" parent="1" vertex="1">
                    <mxGeometry x="470" y="610" width="120" height="100" as="geometry"/>
                </mxCell>
                <mxCell id="11" value="Event&amp;nbsp;" style="text;html=1;strokeColor=none;fillColor=none;align=center;verticalAlign=middle;whiteSpace=wrap;rounded=0;fontSize=14;" parent="1" vertex="1">
                    <mxGeometry x="670" y="230" width="120" height="20" as="geometry"/>
                </mxCell>
                <mxCell id="12" value="&lt;ul style=&quot;font-size: 14px;&quot;&gt;&lt;li style=&quot;font-size: 14px;&quot;&gt;&lt;b style=&quot;font-size: 14px;&quot;&gt;id&lt;/b&gt;&lt;/li&gt;&lt;li style=&quot;font-size: 14px;&quot;&gt;&lt;span style=&quot;font-size: 14px;&quot;&gt;titel&lt;/span&gt;&lt;/li&gt;&lt;li style=&quot;font-size: 14px;&quot;&gt;&lt;span style=&quot;font-size: 14px;&quot;&gt;datum&lt;/span&gt;&lt;/li&gt;&lt;li style=&quot;font-size: 14px;&quot;&gt;&lt;span style=&quot;font-size: 14px;&quot;&gt;beschrijving&lt;/span&gt;&lt;/li&gt;&lt;/ul&gt;" style="text;html=1;strokeColor=none;fillColor=none;align=left;verticalAlign=top;whiteSpace=wrap;rounded=0;fontSize=14;" parent="1" vertex="1">
                    <mxGeometry x="650" y="240" width="120" height="80" as="geometry"/>
                </mxCell>
                <mxCell id="14" value="Recept" style="text;html=1;strokeColor=none;fillColor=none;align=center;verticalAlign=middle;whiteSpace=wrap;rounded=0;fontSize=14;" parent="1" vertex="1">
                    <mxGeometry x="670" y="430" width="120" height="20" as="geometry"/>
                </mxCell>
                <mxCell id="15" value="Ingredient" style="text;html=1;strokeColor=none;fillColor=none;align=center;verticalAlign=middle;whiteSpace=wrap;rounded=0;fontSize=14;" parent="1" vertex="1">
                    <mxGeometry x="670" y="700" width="120" height="20" as="geometry"/>
                </mxCell>
                <mxCell id="16" value="&lt;div style=&quot;font-size: 14px;&quot;&gt;&lt;ul style=&quot;font-size: 14px;&quot;&gt;&lt;li style=&quot;font-size: 14px;&quot;&gt;&lt;font style=&quot;font-size: 14px;&quot;&gt;&lt;b style=&quot;font-size: 14px;&quot;&gt;id&lt;/b&gt;&lt;/font&gt;&lt;/li&gt;&lt;li style=&quot;font-size: 14px;&quot;&gt;&lt;font style=&quot;font-size: 14px;&quot;&gt;eenheid hoeveelheid&lt;/font&gt;&lt;/li&gt;&lt;li style=&quot;font-size: 14px;&quot;&gt;&lt;font style=&quot;font-size: 14px;&quot;&gt;hoeveelheid verpakking&lt;/font&gt;&lt;/li&gt;&lt;li style=&quot;font-size: 14px;&quot;&gt;&lt;font style=&quot;font-size: 14px;&quot;&gt;beschrijving&lt;/font&gt;&lt;/li&gt;&lt;li style=&quot;font-size: 14px;&quot;&gt;&lt;font style=&quot;font-size: 14px;&quot;&gt;naam&lt;/font&gt;&lt;/li&gt;&lt;li style=&quot;font-size: 14px;&quot;&gt;&lt;font style=&quot;font-size: 14px;&quot;&gt;foto&lt;/font&gt;&lt;/li&gt;&lt;li style=&quot;font-size: 14px;&quot;&gt;&lt;font style=&quot;font-size: 14px;&quot;&gt;prijs&lt;/font&gt;&lt;/li&gt;&lt;li style=&quot;font-size: 14px;&quot;&gt;&lt;font style=&quot;font-size: 14px;&quot;&gt;calorieen&lt;/font&gt;&lt;/li&gt;&lt;/ul&gt;&lt;/div&gt;" style="text;html=1;strokeColor=none;fillColor=none;align=left;verticalAlign=top;whiteSpace=wrap;rounded=0;fontSize=14;" parent="1" vertex="1">
                    <mxGeometry x="650" y="710" width="130" height="190" as="geometry"/>
                </mxCell>
                <mxCell id="17" value="&lt;ul style=&quot;font-size: 14px;&quot;&gt;&lt;li style=&quot;font-size: 14px;&quot;&gt;&lt;b style=&quot;font-size: 14px;&quot;&gt;id&lt;/b&gt;&lt;/li&gt;&lt;li style=&quot;font-size: 14px;&quot;&gt;&lt;span style=&quot;font-size: 14px;&quot;&gt;titel&lt;/span&gt;&lt;/li&gt;&lt;li style=&quot;font-size: 14px;&quot;&gt;&lt;span style=&quot;font-size: 14px;&quot;&gt;beschrijving&lt;/span&gt;&lt;/li&gt;&lt;li style=&quot;font-size: 14px;&quot;&gt;&lt;span style=&quot;font-size: 14px;&quot;&gt;type&lt;/span&gt;&lt;/li&gt;&lt;li style=&quot;font-size: 14px;&quot;&gt;&lt;span style=&quot;font-size: 14px;&quot;&gt;keuken&lt;/span&gt;&lt;/li&gt;&lt;li style=&quot;font-size: 14px;&quot;&gt;&lt;span style=&quot;font-size: 14px;&quot;&gt;uploader_id&lt;/span&gt;&lt;/li&gt;&lt;li style=&quot;font-size: 14px;&quot;&gt;&lt;span style=&quot;font-size: 14px;&quot;&gt;datum&lt;/span&gt;&lt;/li&gt;&lt;/ul&gt;" style="text;html=1;strokeColor=none;fillColor=none;align=left;verticalAlign=top;whiteSpace=wrap;rounded=0;fontSize=14;" parent="1" vertex="1">
                    <mxGeometry x="650" y="440" width="120" height="140" as="geometry"/>
                </mxCell>
                <mxCell id="19" value="User" style="text;html=1;strokeColor=none;fillColor=none;align=center;verticalAlign=middle;whiteSpace=wrap;rounded=0;fontSize=14;" parent="1" vertex="1">
                    <mxGeometry x="1120" y="450" width="120" height="20" as="geometry"/>
                </mxCell>
                <mxCell id="22" value="&lt;ul style=&quot;font-size: 14px;&quot;&gt;&lt;li style=&quot;font-size: 14px;&quot;&gt;&lt;b style=&quot;font-size: 14px;&quot;&gt;id&lt;/b&gt;&lt;/li&gt;&lt;li style=&quot;font-size: 14px;&quot;&gt;naam&amp;nbsp;&lt;/li&gt;&lt;li style=&quot;font-size: 14px;&quot;&gt;foto&lt;/li&gt;&lt;li style=&quot;font-size: 14px;&quot;&gt;email&lt;/li&gt;&lt;li style=&quot;font-size: 14px;&quot;&gt;wachtwoord&lt;/li&gt;&lt;/ul&gt;" style="text;html=1;strokeColor=none;fillColor=none;align=left;verticalAlign=top;whiteSpace=wrap;rounded=0;fontSize=14;" parent="1" vertex="1">
                    <mxGeometry x="1100" y="460" width="110" height="110" as="geometry"/>
                </mxCell>
                <mxCell id="24" value="User-Recept Relatie" style="text;html=1;strokeColor=none;fillColor=none;align=center;verticalAlign=middle;whiteSpace=wrap;rounded=0;fontSize=14;" parent="1" vertex="1">
                    <mxGeometry x="900" y="440" width="120" height="20" as="geometry"/>
                </mxCell>
                <mxCell id="25" value="&lt;ul style=&quot;font-size: 14px&quot;&gt;&lt;li style=&quot;font-size: 14px&quot;&gt;&lt;b style=&quot;font-size: 14px&quot;&gt;id&lt;/b&gt;&lt;/li&gt;&lt;li style=&quot;font-size: 14px&quot;&gt;&lt;b style=&quot;font-size: 14px&quot;&gt;&lt;u&gt;user_id&lt;/u&gt;&lt;/b&gt;&lt;/li&gt;&lt;li style=&quot;font-size: 14px&quot;&gt;&lt;b style=&quot;font-size: 14px&quot;&gt;&lt;u&gt;recept_id&lt;/u&gt;&lt;/b&gt;&lt;/li&gt;&lt;li style=&quot;font-size: 14px&quot;&gt;rating&lt;/li&gt;&lt;li style=&quot;font-size: 14px&quot;&gt;favoriet&lt;/li&gt;&lt;/ul&gt;" style="text;html=1;strokeColor=none;fillColor=none;align=left;verticalAlign=top;whiteSpace=wrap;rounded=0;fontSize=14;" parent="1" vertex="1">
                    <mxGeometry x="880" y="460" width="120" height="110" as="geometry"/>
                </mxCell>
                <mxCell id="27" value="Ingredient-Recept Relatie" style="text;html=1;strokeColor=none;fillColor=none;align=center;verticalAlign=middle;whiteSpace=wrap;rounded=0;fontSize=14;" parent="1" vertex="1">
                    <mxGeometry x="470" y="580" width="130" height="20" as="geometry"/>
                </mxCell>
                <mxCell id="28" value="&lt;ul style=&quot;font-size: 14px&quot;&gt;&lt;li style=&quot;font-size: 14px&quot;&gt;&lt;b style=&quot;font-size: 14px&quot;&gt;id&lt;/b&gt;&lt;/li&gt;&lt;li style=&quot;font-size: 14px&quot;&gt;&lt;b style=&quot;font-size: 14px&quot;&gt;&lt;u&gt;ingredient_id&lt;/u&gt;&lt;/b&gt;&lt;/li&gt;&lt;li style=&quot;font-size: 14px&quot;&gt;&lt;b style=&quot;font-size: 14px&quot;&gt;&lt;u&gt;recept_id&lt;/u&gt;&lt;/b&gt;&lt;/li&gt;&lt;li style=&quot;font-size: 14px&quot;&gt;hoeveelheid recept&lt;/li&gt;&lt;/ul&gt;" style="text;html=1;strokeColor=none;fillColor=none;align=left;verticalAlign=top;whiteSpace=wrap;rounded=0;fontSize=14;" parent="1" vertex="1">
                    <mxGeometry x="450" y="600" width="120" height="110" as="geometry"/>
                </mxCell>
                <mxCell id="29" value="" style="rounded=0;whiteSpace=wrap;html=1;fontSize=14;" parent="1" vertex="1">
                    <mxGeometry x="470" y="330" width="120" height="80" as="geometry"/>
                </mxCell>
                <mxCell id="30" value="Recept Stap" style="text;html=1;strokeColor=none;fillColor=none;align=center;verticalAlign=middle;whiteSpace=wrap;rounded=0;fontSize=14;" parent="1" vertex="1">
                    <mxGeometry x="470" y="310" width="120" height="20" as="geometry"/>
                </mxCell>
                <mxCell id="31" value="&lt;ul style=&quot;font-size: 14px&quot;&gt;&lt;li style=&quot;font-size: 14px&quot;&gt;&lt;b style=&quot;font-size: 14px&quot;&gt;id&lt;/b&gt;&lt;/li&gt;&lt;li style=&quot;font-size: 14px&quot;&gt;&lt;b style=&quot;font-size: 14px&quot;&gt;&lt;u&gt;recept_id&lt;/u&gt;&lt;/b&gt;&lt;/li&gt;&lt;li style=&quot;font-size: 14px&quot;&gt;&lt;span style=&quot;font-size: 14px&quot;&gt;nummer&lt;/span&gt;&lt;/li&gt;&lt;li style=&quot;font-size: 14px&quot;&gt;beschrijving&lt;/li&gt;&lt;/ul&gt;" style="text;html=1;strokeColor=none;fillColor=none;align=left;verticalAlign=top;whiteSpace=wrap;rounded=0;fontSize=14;" parent="1" vertex="1">
                    <mxGeometry x="450" y="320" width="120" height="90" as="geometry"/>
                </mxCell>
                <mxCell id="32" value="" style="rounded=0;whiteSpace=wrap;html=1;fontSize=14;" parent="1" vertex="1">
                    <mxGeometry x="900" y="610" width="120" height="100" as="geometry"/>
                </mxCell>
                <mxCell id="33" value="Opmerking" style="text;html=1;strokeColor=none;fillColor=none;align=center;verticalAlign=middle;whiteSpace=wrap;rounded=0;fontSize=14;" parent="1" vertex="1">
                    <mxGeometry x="900" y="590" width="120" height="20" as="geometry"/>
                </mxCell>
                <mxCell id="34" value="&lt;ul style=&quot;font-size: 14px&quot;&gt;&lt;li style=&quot;font-size: 14px&quot;&gt;&lt;b style=&quot;font-size: 14px&quot;&gt;id&lt;/b&gt;&lt;/li&gt;&lt;li style=&quot;font-size: 14px&quot;&gt;&lt;b style=&quot;font-size: 14px&quot;&gt;&lt;u&gt;recept_id&lt;/u&gt;&lt;/b&gt;&lt;/li&gt;&lt;li style=&quot;font-size: 14px&quot;&gt;&lt;b style=&quot;font-size: 14px&quot;&gt;&lt;u&gt;user_id&lt;/u&gt;&lt;/b&gt;&lt;/li&gt;&lt;li style=&quot;font-size: 14px&quot;&gt;bericht&lt;/li&gt;&lt;li style=&quot;font-size: 14px&quot;&gt;datum&lt;/li&gt;&lt;/ul&gt;" style="text;html=1;strokeColor=none;fillColor=none;align=left;verticalAlign=top;whiteSpace=wrap;rounded=0;fontSize=14;" parent="1" vertex="1">
                    <mxGeometry x="880" y="600" width="120" height="110" as="geometry"/>
                </mxCell>
                <mxCell id="dVHpm4YaD_FYeAioLJXa-71" value="" style="edgeStyle=entityRelationEdgeStyle;fontSize=12;html=1;endArrow=ERoneToMany;rounded=0;exitX=1.005;exitY=0.458;exitDx=0;exitDy=0;exitPerimeter=0;entryX=0.167;entryY=0.455;entryDx=0;entryDy=0;entryPerimeter=0;" parent="1" source="4" target="25" edge="1">
                    <mxGeometry width="100" height="100" relative="1" as="geometry">
                        <mxPoint x="840" y="580" as="sourcePoint"/>
                        <mxPoint x="810" y="590" as="targetPoint"/>
                    </mxGeometry>
                </mxCell>
                <mxCell id="dVHpm4YaD_FYeAioLJXa-72" value="" style="edgeStyle=entityRelationEdgeStyle;fontSize=12;html=1;endArrow=ERoneToMany;rounded=0;exitX=1.005;exitY=0.697;exitDx=0;exitDy=0;exitPerimeter=0;entryX=0.167;entryY=0.455;entryDx=0;entryDy=0;entryPerimeter=0;" parent="1" source="4" edge="1">
                    <mxGeometry width="100" height="100" relative="1" as="geometry">
                        <mxPoint x="790.0000000000002" y="640" as="sourcePoint"/>
                        <mxPoint x="900.04" y="660.01" as="targetPoint"/>
                    </mxGeometry>
                </mxCell>
                <mxCell id="dVHpm4YaD_FYeAioLJXa-74" value="" style="edgeStyle=entityRelationEdgeStyle;fontSize=12;html=1;endArrow=ERoneToMany;rounded=0;entryX=1.006;entryY=0.399;entryDx=0;entryDy=0;entryPerimeter=0;exitX=0.006;exitY=0.399;exitDx=0;exitDy=0;exitPerimeter=0;" parent="1" source="6" target="7" edge="1">
                    <mxGeometry width="100" height="100" relative="1" as="geometry">
                        <mxPoint x="1270" y="510" as="sourcePoint"/>
                        <mxPoint x="1070" y="500" as="targetPoint"/>
                    </mxGeometry>
                </mxCell>
                <mxCell id="dVHpm4YaD_FYeAioLJXa-75" value="" style="edgeStyle=entityRelationEdgeStyle;fontSize=12;html=1;endArrow=ERoneToMany;rounded=0;entryX=1;entryY=0.5;entryDx=0;entryDy=0;exitX=-0.008;exitY=0.69;exitDx=0;exitDy=0;exitPerimeter=0;" parent="1" source="6" target="32" edge="1">
                    <mxGeometry width="100" height="100" relative="1" as="geometry">
                        <mxPoint x="1100" y="530" as="sourcePoint"/>
                        <mxPoint x="1139.9999999999995" y="640" as="targetPoint"/>
                    </mxGeometry>
                </mxCell>
                <mxCell id="dVHpm4YaD_FYeAioLJXa-76" value="" style="edgeStyle=entityRelationEdgeStyle;fontSize=12;html=1;endArrow=ERoneToMany;rounded=0;entryX=1.008;entryY=0.327;entryDx=0;entryDy=0;exitX=0;exitY=0.697;exitDx=0;exitDy=0;exitPerimeter=0;entryPerimeter=0;" parent="1" source="4" target="8" edge="1">
                    <mxGeometry x="0.0926" y="30" width="100" height="100" relative="1" as="geometry">
                        <mxPoint x="764.8299999999997" y="630.36" as="sourcePoint"/>
                        <mxPoint x="665" y="660" as="targetPoint"/>
                        <mxPoint as="offset"/>
                    </mxGeometry>
                </mxCell>
                <mxCell id="dVHpm4YaD_FYeAioLJXa-77" value="" style="edgeStyle=entityRelationEdgeStyle;fontSize=12;html=1;endArrow=ERoneToMany;rounded=0;entryX=0.997;entryY=0.616;entryDx=0;entryDy=0;exitX=0;exitY=0.5;exitDx=0;exitDy=0;entryPerimeter=0;" parent="1" source="5" target="8" edge="1">
                    <mxGeometry x="0.0926" y="30" width="100" height="100" relative="1" as="geometry">
                        <mxPoint x="590" y="840" as="sourcePoint"/>
                        <mxPoint x="689.98" y="700" as="targetPoint"/>
                        <mxPoint as="offset"/>
                    </mxGeometry>
                </mxCell>
                <mxCell id="dVHpm4YaD_FYeAioLJXa-78" value="" style="edgeStyle=entityRelationEdgeStyle;fontSize=12;html=1;endArrow=ERoneToMany;rounded=0;exitX=0;exitY=0.25;exitDx=0;exitDy=0;" parent="1" source="4" target="29" edge="1">
                    <mxGeometry width="100" height="100" relative="1" as="geometry">
                        <mxPoint x="610" y="490" as="sourcePoint"/>
                        <mxPoint x="500" y="480" as="targetPoint"/>
                    </mxGeometry>
                </mxCell>
            </root>
        </mxGraphModel>
    </diagram>
    <diagram name="ERD2" id="9HOZeDX3tmp8ipSN92t4">
        <mxGraphModel dx="833" dy="617" grid="1" gridSize="10" guides="1" tooltips="1" connect="1" arrows="1" fold="1" page="1" pageScale="1" pageWidth="850" pageHeight="1100" math="0" shadow="0">
            <root>
                <mxCell id="Yj9hBsEroW87y-uBR-w0-0"/>
                <mxCell id="Yj9hBsEroW87y-uBR-w0-1" parent="Yj9hBsEroW87y-uBR-w0-0"/>
                <mxCell id="pUN_7sVBmPhDuhiaXB4Z-39" style="edgeStyle=orthogonalEdgeStyle;rounded=0;orthogonalLoop=1;jettySize=auto;html=1;exitX=0;exitY=0.5;exitDx=0;exitDy=0;endArrow=ERmany;endFill=0;" parent="Yj9hBsEroW87y-uBR-w0-1" source="pUN_7sVBmPhDuhiaXB4Z-0" edge="1">
                    <mxGeometry relative="1" as="geometry">
                        <mxPoint x="1040" y="320" as="targetPoint"/>
                        <Array as="points">
                            <mxPoint x="1110" y="295"/>
                            <mxPoint x="1110" y="295"/>
                        </Array>
                    </mxGeometry>
                </mxCell>
                <mxCell id="pUN_7sVBmPhDuhiaXB4Z-0" value="Recipe" style="swimlane;childLayout=stackLayout;horizontal=1;startSize=30;horizontalStack=0;rounded=1;fontSize=14;fontStyle=0;strokeWidth=2;resizeParent=0;resizeLast=1;shadow=0;dashed=0;align=center;" parent="Yj9hBsEroW87y-uBR-w0-1" vertex="1">
                    <mxGeometry x="1260" y="210" width="160" height="170" as="geometry"/>
                </mxCell>
                <mxCell id="pUN_7sVBmPhDuhiaXB4Z-1" value="id&#10;kitchen_id&#10;type_id&#10;user_id&#10;data_added&#10;title&#10;description_short&#10;description_long&#10;picture" style="align=left;strokeColor=none;fillColor=none;spacingLeft=4;fontSize=12;verticalAlign=top;resizable=0;rotatable=0;part=1;" parent="pUN_7sVBmPhDuhiaXB4Z-0" vertex="1">
                    <mxGeometry y="30" width="160" height="140" as="geometry"/>
                </mxCell>
                <mxCell id="pUN_7sVBmPhDuhiaXB4Z-3" value="KitchenType" style="swimlane;childLayout=stackLayout;horizontal=1;startSize=30;horizontalStack=0;rounded=1;fontSize=14;fontStyle=0;strokeWidth=2;resizeParent=0;resizeLast=1;shadow=0;dashed=0;align=center;" parent="Yj9hBsEroW87y-uBR-w0-1" vertex="1">
                    <mxGeometry x="1260" y="62.5" width="160" height="90" as="geometry"/>
                </mxCell>
                <mxCell id="pUN_7sVBmPhDuhiaXB4Z-4" value="id&#10;record_type [K, T]&#10;description" style="align=left;strokeColor=none;fillColor=none;spacingLeft=4;fontSize=12;verticalAlign=top;resizable=0;rotatable=0;part=1;" parent="pUN_7sVBmPhDuhiaXB4Z-3" vertex="1">
                    <mxGeometry y="30" width="160" height="60" as="geometry"/>
                </mxCell>
                <mxCell id="pUN_7sVBmPhDuhiaXB4Z-5" value="User" style="swimlane;childLayout=stackLayout;horizontal=1;startSize=30;horizontalStack=0;rounded=1;fontSize=14;fontStyle=0;strokeWidth=2;resizeParent=0;resizeLast=1;shadow=0;dashed=0;align=center;" parent="Yj9hBsEroW87y-uBR-w0-1" vertex="1">
                    <mxGeometry x="960" y="110" width="160" height="120" as="geometry"/>
                </mxCell>
                <mxCell id="pUN_7sVBmPhDuhiaXB4Z-6" value="id&#10;username&#10;passwordk&#10;email&#10;picture" style="align=left;strokeColor=none;fillColor=none;spacingLeft=4;fontSize=12;verticalAlign=top;resizable=0;rotatable=0;part=1;" parent="pUN_7sVBmPhDuhiaXB4Z-5" vertex="1">
                    <mxGeometry y="30" width="160" height="90" as="geometry"/>
                </mxCell>
                <mxCell id="pUN_7sVBmPhDuhiaXB4Z-7" value="RecipeInfo" style="swimlane;childLayout=stackLayout;horizontal=1;startSize=30;horizontalStack=0;rounded=1;fontSize=14;fontStyle=0;strokeWidth=2;resizeParent=0;resizeLast=1;shadow=0;dashed=0;align=center;fillColor=default;movable=0;resizable=0;rotatable=0;deletable=0;editable=0;connectable=0;container=0;" parent="Yj9hBsEroW87y-uBR-w0-1" vertex="1">
                    <mxGeometry x="920" y="320" width="230" height="530" as="geometry"/>
                </mxCell>
                <mxCell id="pUN_7sVBmPhDuhiaXB4Z-12" value="Preparation (record_type: P)" style="swimlane;childLayout=stackLayout;horizontal=1;startSize=30;horizontalStack=0;rounded=1;fontSize=14;fontStyle=0;strokeWidth=2;resizeParent=0;resizeLast=1;shadow=0;dashed=0;align=center;fillColor=default;movable=0;resizable=0;rotatable=0;deletable=0;editable=0;connectable=0;" parent="Yj9hBsEroW87y-uBR-w0-1" vertex="1">
                    <mxGeometry x="935" y="470" width="200" height="75" as="geometry"/>
                </mxCell>
                <mxCell id="pUN_7sVBmPhDuhiaXB4Z-13" value="step (field_number)&#10;description (field_text)" style="align=left;strokeColor=none;fillColor=none;spacingLeft=4;fontSize=12;verticalAlign=top;resizable=0;rotatable=0;part=1;movable=0;deletable=0;editable=0;connectable=0;" parent="pUN_7sVBmPhDuhiaXB4Z-12" vertex="1">
                    <mxGeometry y="30" width="200" height="45" as="geometry"/>
                </mxCell>
                <mxCell id="pUN_7sVBmPhDuhiaXB4Z-15" value="Comment (record_type: C)" style="swimlane;childLayout=stackLayout;horizontal=1;startSize=30;horizontalStack=0;rounded=1;fontSize=14;fontStyle=0;strokeWidth=2;resizeParent=0;resizeLast=1;shadow=0;dashed=0;align=center;fillColor=default;movable=0;resizable=0;rotatable=0;deletable=0;editable=0;connectable=0;" parent="Yj9hBsEroW87y-uBR-w0-1" vertex="1">
                    <mxGeometry x="935" y="565" width="200" height="75" as="geometry"/>
                </mxCell>
                <mxCell id="pUN_7sVBmPhDuhiaXB4Z-16" value="[user_id]&#10;description (field_text)" style="align=left;strokeColor=none;fillColor=none;spacingLeft=4;fontSize=12;verticalAlign=top;resizable=0;rotatable=0;part=1;movable=0;deletable=0;editable=0;connectable=0;" parent="pUN_7sVBmPhDuhiaXB4Z-15" vertex="1">
                    <mxGeometry y="30" width="200" height="45" as="geometry"/>
                </mxCell>
                <mxCell id="pUN_7sVBmPhDuhiaXB4Z-17" value="Rating (record_type: R)" style="swimlane;childLayout=stackLayout;horizontal=1;startSize=30;horizontalStack=0;rounded=1;fontSize=14;fontStyle=0;strokeWidth=2;resizeParent=0;resizeLast=1;shadow=0;dashed=0;align=center;fillColor=default;movable=0;resizable=0;rotatable=0;deletable=0;editable=0;connectable=0;" parent="Yj9hBsEroW87y-uBR-w0-1" vertex="1">
                    <mxGeometry x="935" y="657.5" width="200" height="75" as="geometry"/>
                </mxCell>
                <mxCell id="pUN_7sVBmPhDuhiaXB4Z-18" value="number (field_number)" style="align=left;strokeColor=none;fillColor=none;spacingLeft=4;fontSize=12;verticalAlign=top;resizable=0;rotatable=0;part=1;movable=0;deletable=0;editable=0;connectable=0;" parent="pUN_7sVBmPhDuhiaXB4Z-17" vertex="1">
                    <mxGeometry y="30" width="200" height="45" as="geometry"/>
                </mxCell>
                <mxCell id="pUN_7sVBmPhDuhiaXB4Z-19" value="Favorite (record_type: F)" style="swimlane;childLayout=stackLayout;horizontal=1;startSize=30;horizontalStack=0;rounded=1;fontSize=14;fontStyle=0;strokeWidth=2;resizeParent=0;resizeLast=1;shadow=0;dashed=0;align=center;fillColor=default;movable=0;resizable=0;rotatable=0;deletable=0;editable=0;connectable=0;" parent="Yj9hBsEroW87y-uBR-w0-1" vertex="1">
                    <mxGeometry x="935" y="757.5" width="200" height="75" as="geometry"/>
                </mxCell>
                <mxCell id="pUN_7sVBmPhDuhiaXB4Z-20" value="[user_id]" style="align=left;strokeColor=none;fillColor=none;spacingLeft=4;fontSize=12;verticalAlign=top;resizable=0;rotatable=0;part=1;movable=0;deletable=0;editable=0;connectable=0;" parent="pUN_7sVBmPhDuhiaXB4Z-19" vertex="1">
                    <mxGeometry y="30" width="200" height="45" as="geometry"/>
                </mxCell>
                <mxCell id="pUN_7sVBmPhDuhiaXB4Z-8" value="id&#10;record_type [P, C, R, F]&#10;recipe_id&#10;user_id&#10;date&#10;field_number&#10;field_text" style="align=left;strokeColor=none;fillColor=none;spacingLeft=4;fontSize=12;verticalAlign=top;resizable=0;rotatable=0;part=1;movable=0;deletable=0;editable=0;connectable=0;" parent="Yj9hBsEroW87y-uBR-w0-1" vertex="1">
                    <mxGeometry x="920" y="350" width="230" height="500" as="geometry"/>
                </mxCell>
                <mxCell id="pUN_7sVBmPhDuhiaXB4Z-22" value="Ingredient" style="swimlane;childLayout=stackLayout;horizontal=1;startSize=30;horizontalStack=0;rounded=1;fontSize=14;fontStyle=0;strokeWidth=2;resizeParent=0;resizeLast=1;shadow=0;dashed=0;align=center;" parent="Yj9hBsEroW87y-uBR-w0-1" vertex="1">
                    <mxGeometry x="1260" y="422.5" width="160" height="107.5" as="geometry"/>
                </mxCell>
                <mxCell id="pUN_7sVBmPhDuhiaXB4Z-23" value="id&#10;recipe_id&#10;article_id&#10;quantity" style="align=left;strokeColor=none;fillColor=none;spacingLeft=4;fontSize=12;verticalAlign=top;resizable=0;rotatable=0;part=1;" parent="pUN_7sVBmPhDuhiaXB4Z-22" vertex="1">
                    <mxGeometry y="30" width="160" height="77.5" as="geometry"/>
                </mxCell>
                <mxCell id="pUN_7sVBmPhDuhiaXB4Z-44" style="edgeStyle=orthogonalEdgeStyle;rounded=0;orthogonalLoop=1;jettySize=auto;html=1;exitX=0.5;exitY=0;exitDx=0;exitDy=0;entryX=0.5;entryY=1;entryDx=0;entryDy=0;endArrow=ERmany;endFill=0;" parent="Yj9hBsEroW87y-uBR-w0-1" source="pUN_7sVBmPhDuhiaXB4Z-24" target="pUN_7sVBmPhDuhiaXB4Z-23" edge="1">
                    <mxGeometry relative="1" as="geometry"/>
                </mxCell>
                <mxCell id="pUN_7sVBmPhDuhiaXB4Z-24" value="Article" style="swimlane;childLayout=stackLayout;horizontal=1;startSize=30;horizontalStack=0;rounded=1;fontSize=14;fontStyle=0;strokeWidth=2;resizeParent=0;resizeLast=1;shadow=0;dashed=0;align=center;" parent="Yj9hBsEroW87y-uBR-w0-1" vertex="1">
                    <mxGeometry x="1260" y="570" width="160" height="160" as="geometry"/>
                </mxCell>
                <mxCell id="pUN_7sVBmPhDuhiaXB4Z-25" value="id&#10;name&#10;description&#10;price&#10;unit&#10;quantity&#10;calories&#10;picture" style="align=left;strokeColor=none;fillColor=none;spacingLeft=4;fontSize=12;verticalAlign=top;resizable=0;rotatable=0;part=1;" parent="pUN_7sVBmPhDuhiaXB4Z-24" vertex="1">
                    <mxGeometry y="30" width="160" height="130" as="geometry"/>
                </mxCell>
                <mxCell id="pUN_7sVBmPhDuhiaXB4Z-40" style="edgeStyle=orthogonalEdgeStyle;rounded=0;orthogonalLoop=1;jettySize=auto;html=1;exitX=0.5;exitY=1;exitDx=0;exitDy=0;entryX=0;entryY=0.25;entryDx=0;entryDy=0;endArrow=ERmany;endFill=0;" parent="Yj9hBsEroW87y-uBR-w0-1" source="pUN_7sVBmPhDuhiaXB4Z-6" target="pUN_7sVBmPhDuhiaXB4Z-1" edge="1">
                    <mxGeometry relative="1" as="geometry"/>
                </mxCell>
                <mxCell id="pUN_7sVBmPhDuhiaXB4Z-41" style="edgeStyle=orthogonalEdgeStyle;rounded=0;orthogonalLoop=1;jettySize=auto;html=1;exitX=0.25;exitY=1;exitDx=0;exitDy=0;entryX=0.25;entryY=0;entryDx=0;entryDy=0;endArrow=ERmany;endFill=0;" parent="Yj9hBsEroW87y-uBR-w0-1" source="pUN_7sVBmPhDuhiaXB4Z-4" target="pUN_7sVBmPhDuhiaXB4Z-0" edge="1">
                    <mxGeometry relative="1" as="geometry"/>
                </mxCell>
                <mxCell id="pUN_7sVBmPhDuhiaXB4Z-42" style="edgeStyle=orthogonalEdgeStyle;rounded=0;orthogonalLoop=1;jettySize=auto;html=1;exitX=0.75;exitY=1;exitDx=0;exitDy=0;entryX=0.75;entryY=0;entryDx=0;entryDy=0;endArrow=ERmany;endFill=0;" parent="Yj9hBsEroW87y-uBR-w0-1" source="pUN_7sVBmPhDuhiaXB4Z-4" target="pUN_7sVBmPhDuhiaXB4Z-0" edge="1">
                    <mxGeometry relative="1" as="geometry"/>
                </mxCell>
                <mxCell id="pUN_7sVBmPhDuhiaXB4Z-43" style="edgeStyle=orthogonalEdgeStyle;rounded=0;orthogonalLoop=1;jettySize=auto;html=1;exitX=0.5;exitY=1;exitDx=0;exitDy=0;entryX=0.5;entryY=0;entryDx=0;entryDy=0;endArrow=ERmany;endFill=0;" parent="Yj9hBsEroW87y-uBR-w0-1" source="pUN_7sVBmPhDuhiaXB4Z-1" target="pUN_7sVBmPhDuhiaXB4Z-22" edge="1">
                    <mxGeometry relative="1" as="geometry"/>
                </mxCell>
                <mxCell id="pUN_7sVBmPhDuhiaXB4Z-45" style="edgeStyle=orthogonalEdgeStyle;rounded=0;orthogonalLoop=1;jettySize=auto;html=1;exitX=0;exitY=0.25;exitDx=0;exitDy=0;endArrow=ERmany;endFill=0;dashed=1;" parent="Yj9hBsEroW87y-uBR-w0-1" source="pUN_7sVBmPhDuhiaXB4Z-6" edge="1">
                    <mxGeometry relative="1" as="geometry">
                        <mxPoint x="920" y="590" as="targetPoint"/>
                        <Array as="points">
                            <mxPoint x="840" y="163"/>
                            <mxPoint x="840" y="590"/>
                        </Array>
                    </mxGeometry>
                </mxCell>
            </root>
        </mxGraphModel>
    </diagram>
    <diagram id="yGkhgPfkw5QG9nmMMaqE" name="ASD-v1">
        <mxGraphModel dx="1024" dy="612" grid="1" gridSize="10" guides="1" tooltips="1" connect="1" arrows="1" fold="1" page="1" pageScale="1" pageWidth="850" pageHeight="1100" math="0" shadow="0">
            <root>
                <mxCell id="69BrS9RmwNzSeMj6E1C2-0"/>
                <mxCell id="69BrS9RmwNzSeMj6E1C2-1" parent="69BrS9RmwNzSeMj6E1C2-0"/>
                <mxCell id="69BrS9RmwNzSeMj6E1C2-2" value="Gerecht" style="swimlane;childLayout=stackLayout;resizeParent=1;resizeParentMax=0;startSize=20;" parent="69BrS9RmwNzSeMj6E1C2-1" vertex="1">
                    <mxGeometry x="190" y="40" width="790" height="740" as="geometry">
                        <mxRectangle x="180" y="50" width="60" height="20" as="alternateBounds"/>
                    </mxGeometry>
                </mxCell>
                <mxCell id="69BrS9RmwNzSeMj6E1C2-3" value="Controller" style="swimlane;startSize=20;" parent="69BrS9RmwNzSeMj6E1C2-2" vertex="1">
                    <mxGeometry y="20" width="150" height="720" as="geometry"/>
                </mxCell>
                <mxCell id="69BrS9RmwNzSeMj6E1C2-9" value="initialisatie" style="rounded=0;whiteSpace=wrap;html=1;" parent="69BrS9RmwNzSeMj6E1C2-3" vertex="1">
                    <mxGeometry x="30" y="50" width="90" height="20" as="geometry"/>
                </mxCell>
                <mxCell id="69BrS9RmwNzSeMj6E1C2-10" value="" style="endArrow=classic;html=1;exitX=0.5;exitY=1;exitDx=0;exitDy=0;entryX=0.5;entryY=0;entryDx=0;entryDy=0;" parent="69BrS9RmwNzSeMj6E1C2-3" source="69BrS9RmwNzSeMj6E1C2-9" target="69BrS9RmwNzSeMj6E1C2-11" edge="1">
                    <mxGeometry width="50" height="50" relative="1" as="geometry">
                        <mxPoint x="74.33000000000001" y="90" as="sourcePoint"/>
                        <mxPoint x="74" y="160" as="targetPoint"/>
                    </mxGeometry>
                </mxCell>
                <mxCell id="69BrS9RmwNzSeMj6E1C2-11" value="Gerecht ophalen" style="rounded=0;whiteSpace=wrap;html=1;" parent="69BrS9RmwNzSeMj6E1C2-3" vertex="1">
                    <mxGeometry x="22.5" y="170" width="105" height="20" as="geometry"/>
                </mxCell>
                <mxCell id="69BrS9RmwNzSeMj6E1C2-12" value="" style="endArrow=classic;html=1;exitX=0.5;exitY=1;exitDx=0;exitDy=0;entryX=0.5;entryY=0;entryDx=0;entryDy=0;" parent="69BrS9RmwNzSeMj6E1C2-3" source="69BrS9RmwNzSeMj6E1C2-11" target="69BrS9RmwNzSeMj6E1C2-13" edge="1">
                    <mxGeometry width="50" height="50" relative="1" as="geometry">
                        <mxPoint x="74.89999999999992" y="205" as="sourcePoint"/>
                        <mxPoint x="75" y="280" as="targetPoint"/>
                    </mxGeometry>
                </mxCell>
                <mxCell id="69BrS9RmwNzSeMj6E1C2-13" value="Gerecht tonen" style="rounded=0;whiteSpace=wrap;html=1;" parent="69BrS9RmwNzSeMj6E1C2-3" vertex="1">
                    <mxGeometry x="22.5" y="290" width="105" height="20" as="geometry"/>
                </mxCell>
                <mxCell id="69BrS9RmwNzSeMj6E1C2-4" value="Business Logic" style="swimlane;startSize=20;" parent="69BrS9RmwNzSeMj6E1C2-2" vertex="1">
                    <mxGeometry x="150" y="20" width="360" height="720" as="geometry"/>
                </mxCell>
                <mxCell id="69BrS9RmwNzSeMj6E1C2-14" value="Selecteer Gerecht" style="rounded=0;whiteSpace=wrap;html=1;" parent="69BrS9RmwNzSeMj6E1C2-4" vertex="1">
                    <mxGeometry x="32.5" y="170" width="105" height="20" as="geometry"/>
                </mxCell>
                <mxCell id="vbJKLycOTlNOPMyoVTTL-19" value="" style="endArrow=classic;html=1;" parent="69BrS9RmwNzSeMj6E1C2-4" edge="1">
                    <mxGeometry width="50" height="50" relative="1" as="geometry">
                        <mxPoint x="30" y="180" as="sourcePoint"/>
                        <mxPoint x="-20" y="180" as="targetPoint"/>
                    </mxGeometry>
                </mxCell>
                <mxCell id="vbJKLycOTlNOPMyoVTTL-21" value="Ophalen Keuken" style="rounded=0;whiteSpace=wrap;html=1;" parent="69BrS9RmwNzSeMj6E1C2-4" vertex="1">
                    <mxGeometry x="200" y="170" width="105" height="20" as="geometry"/>
                </mxCell>
                <mxCell id="vbJKLycOTlNOPMyoVTTL-34" value="Ophalen User" style="rounded=0;whiteSpace=wrap;html=1;" parent="69BrS9RmwNzSeMj6E1C2-4" vertex="1">
                    <mxGeometry x="200" y="260" width="105" height="20" as="geometry"/>
                </mxCell>
                <mxCell id="vbJKLycOTlNOPMyoVTTL-88" value="Ophalen Ingredienten" style="rounded=0;whiteSpace=wrap;html=1;" parent="69BrS9RmwNzSeMj6E1C2-4" vertex="1">
                    <mxGeometry x="200" y="300" width="105" height="30" as="geometry"/>
                </mxCell>
                <mxCell id="vbJKLycOTlNOPMyoVTTL-161" value="Ophalen Bereidingswijze" style="rounded=0;whiteSpace=wrap;html=1;" parent="69BrS9RmwNzSeMj6E1C2-4" vertex="1">
                    <mxGeometry x="200" y="350" width="105" height="30" as="geometry"/>
                </mxCell>
                <mxCell id="vbJKLycOTlNOPMyoVTTL-162" value="Ophalen Opmerkingen" style="rounded=0;whiteSpace=wrap;html=1;" parent="69BrS9RmwNzSeMj6E1C2-4" vertex="1">
                    <mxGeometry x="200" y="400" width="105" height="30" as="geometry"/>
                </mxCell>
                <mxCell id="vbJKLycOTlNOPMyoVTTL-163" value="Ophalen Waarderingen" style="rounded=0;whiteSpace=wrap;html=1;" parent="69BrS9RmwNzSeMj6E1C2-4" vertex="1">
                    <mxGeometry x="200" y="450" width="105" height="30" as="geometry"/>
                </mxCell>
                <mxCell id="vbJKLycOTlNOPMyoVTTL-164" value="Ophalen Favorieten" style="rounded=0;whiteSpace=wrap;html=1;" parent="69BrS9RmwNzSeMj6E1C2-4" vertex="1">
                    <mxGeometry x="200" y="500" width="105" height="30" as="geometry"/>
                </mxCell>
                <mxCell id="vbJKLycOTlNOPMyoVTTL-169" value="" style="endArrow=classic;html=1;rounded=0;" parent="69BrS9RmwNzSeMj6E1C2-4" edge="1">
                    <mxGeometry width="50" height="50" relative="1" as="geometry">
                        <mxPoint x="140" y="180" as="sourcePoint"/>
                        <mxPoint x="200" y="370" as="targetPoint"/>
                        <Array as="points">
                            <mxPoint x="170" y="370"/>
                        </Array>
                    </mxGeometry>
                </mxCell>
                <mxCell id="vbJKLycOTlNOPMyoVTTL-170" value="" style="endArrow=classic;html=1;rounded=0;" parent="69BrS9RmwNzSeMj6E1C2-4" edge="1">
                    <mxGeometry width="50" height="50" relative="1" as="geometry">
                        <mxPoint x="140" y="180" as="sourcePoint"/>
                        <mxPoint x="200" y="410" as="targetPoint"/>
                        <Array as="points">
                            <mxPoint x="170" y="410"/>
                        </Array>
                    </mxGeometry>
                </mxCell>
                <mxCell id="vbJKLycOTlNOPMyoVTTL-171" value="" style="endArrow=classic;html=1;rounded=0;" parent="69BrS9RmwNzSeMj6E1C2-4" edge="1">
                    <mxGeometry width="50" height="50" relative="1" as="geometry">
                        <mxPoint x="140" y="180" as="sourcePoint"/>
                        <mxPoint x="200" y="460" as="targetPoint"/>
                        <Array as="points">
                            <mxPoint x="170" y="460"/>
                        </Array>
                    </mxGeometry>
                </mxCell>
                <mxCell id="vbJKLycOTlNOPMyoVTTL-172" value="" style="endArrow=classic;html=1;rounded=0;" parent="69BrS9RmwNzSeMj6E1C2-4" edge="1">
                    <mxGeometry width="50" height="50" relative="1" as="geometry">
                        <mxPoint x="140" y="180" as="sourcePoint"/>
                        <mxPoint x="200" y="510" as="targetPoint"/>
                        <Array as="points">
                            <mxPoint x="170" y="510"/>
                        </Array>
                    </mxGeometry>
                </mxCell>
                <mxCell id="vbJKLycOTlNOPMyoVTTL-192" value="Bereken Gerecht gemiddelde waardering" style="rounded=0;whiteSpace=wrap;html=1;" parent="69BrS9RmwNzSeMj6E1C2-4" vertex="1">
                    <mxGeometry x="200" y="556" width="104" height="50" as="geometry"/>
                </mxCell>
                <mxCell id="vbJKLycOTlNOPMyoVTTL-193" value="" style="endArrow=classic;html=1;rounded=0;entryX=0;entryY=0.5;entryDx=0;entryDy=0;exitX=0.5;exitY=1;exitDx=0;exitDy=0;" parent="69BrS9RmwNzSeMj6E1C2-4" source="69BrS9RmwNzSeMj6E1C2-14" target="vbJKLycOTlNOPMyoVTTL-192" edge="1">
                    <mxGeometry width="50" height="50" relative="1" as="geometry">
                        <mxPoint x="110" y="200" as="sourcePoint"/>
                        <mxPoint x="210" y="585" as="targetPoint"/>
                        <Array as="points">
                            <mxPoint x="170" y="580"/>
                        </Array>
                    </mxGeometry>
                </mxCell>
                <mxCell id="vbJKLycOTlNOPMyoVTTL-194" value="Bereken Gerecht totaal calorieën" style="rounded=0;whiteSpace=wrap;html=1;" parent="69BrS9RmwNzSeMj6E1C2-4" vertex="1">
                    <mxGeometry x="200" y="616" width="105" height="30" as="geometry"/>
                </mxCell>
                <mxCell id="vbJKLycOTlNOPMyoVTTL-199" value="" style="endArrow=classic;html=1;rounded=0;exitX=0.5;exitY=1;exitDx=0;exitDy=0;entryX=0;entryY=0.5;entryDx=0;entryDy=0;" parent="69BrS9RmwNzSeMj6E1C2-4" source="69BrS9RmwNzSeMj6E1C2-14" target="vbJKLycOTlNOPMyoVTTL-194" edge="1">
                    <mxGeometry width="50" height="50" relative="1" as="geometry">
                        <mxPoint x="190" y="380" as="sourcePoint"/>
                        <mxPoint x="240" y="330" as="targetPoint"/>
                        <Array as="points">
                            <mxPoint x="170" y="630"/>
                        </Array>
                    </mxGeometry>
                </mxCell>
                <mxCell id="vbJKLycOTlNOPMyoVTTL-218" value="Bereken Gerecht totaal prijs" style="rounded=0;whiteSpace=wrap;html=1;" parent="69BrS9RmwNzSeMj6E1C2-4" vertex="1">
                    <mxGeometry x="199" y="660" width="105" height="30" as="geometry"/>
                </mxCell>
                <mxCell id="vbJKLycOTlNOPMyoVTTL-219" value="" style="endArrow=classic;html=1;rounded=0;exitX=0.5;exitY=1;exitDx=0;exitDy=0;entryX=0;entryY=0.5;entryDx=0;entryDy=0;" parent="69BrS9RmwNzSeMj6E1C2-4" source="69BrS9RmwNzSeMj6E1C2-14" target="vbJKLycOTlNOPMyoVTTL-218" edge="1">
                    <mxGeometry width="50" height="50" relative="1" as="geometry">
                        <mxPoint x="95" y="200" as="sourcePoint"/>
                        <mxPoint x="210" y="641" as="targetPoint"/>
                        <Array as="points">
                            <mxPoint x="170" y="675"/>
                        </Array>
                    </mxGeometry>
                </mxCell>
                <mxCell id="69BrS9RmwNzSeMj6E1C2-5" value="Model" style="swimlane;startSize=20;" parent="69BrS9RmwNzSeMj6E1C2-2" vertex="1">
                    <mxGeometry x="510" y="20" width="280" height="720" as="geometry"/>
                </mxCell>
                <mxCell id="vbJKLycOTlNOPMyoVTTL-14" value="Gerecht" style="swimlane;childLayout=stackLayout;horizontal=1;startSize=30;horizontalStack=0;rounded=1;fontSize=14;fontStyle=0;strokeWidth=2;resizeParent=0;resizeLast=1;shadow=0;dashed=0;align=center;" parent="69BrS9RmwNzSeMj6E1C2-5" vertex="1">
                    <mxGeometry x="60" y="50" width="160" height="170" as="geometry"/>
                </mxCell>
                <mxCell id="vbJKLycOTlNOPMyoVTTL-15" value="id&#10;keuken_id&#10;type_id&#10;user_id&#10;datum_toegevoegd&#10;titel&#10;korte_omschrijving&#10;lange_omschrijving&#10;afbeelding" style="align=left;strokeColor=none;fillColor=none;spacingLeft=4;fontSize=12;verticalAlign=top;resizable=0;rotatable=0;part=1;" parent="vbJKLycOTlNOPMyoVTTL-14" vertex="1">
                    <mxGeometry y="30" width="160" height="140" as="geometry"/>
                </mxCell>
                <mxCell id="vbJKLycOTlNOPMyoVTTL-24" value="Selecteer Keuken-Type" style="rounded=0;whiteSpace=wrap;html=1;" parent="69BrS9RmwNzSeMj6E1C2-5" vertex="1">
                    <mxGeometry x="87.5" y="260" width="112.5" height="30" as="geometry"/>
                </mxCell>
                <mxCell id="vbJKLycOTlNOPMyoVTTL-29" value="Ophalen Type" style="rounded=0;whiteSpace=wrap;html=1;" parent="69BrS9RmwNzSeMj6E1C2-5" vertex="1">
                    <mxGeometry x="-160" y="215" width="105" height="20" as="geometry"/>
                </mxCell>
                <mxCell id="vbJKLycOTlNOPMyoVTTL-30" value="" style="endArrow=classic;html=1;rounded=0;entryX=1;entryY=0.5;entryDx=0;entryDy=0;exitX=0;exitY=0.5;exitDx=0;exitDy=0;" parent="69BrS9RmwNzSeMj6E1C2-5" source="vbJKLycOTlNOPMyoVTTL-24" target="vbJKLycOTlNOPMyoVTTL-29" edge="1">
                    <mxGeometry width="50" height="50" relative="1" as="geometry">
                        <mxPoint x="80" y="270" as="sourcePoint"/>
                        <mxPoint x="-50" y="225" as="targetPoint"/>
                        <Array as="points">
                            <mxPoint x="-10" y="225"/>
                        </Array>
                    </mxGeometry>
                </mxCell>
                <mxCell id="vbJKLycOTlNOPMyoVTTL-33" value="Selecteer User" style="rounded=0;whiteSpace=wrap;html=1;" parent="69BrS9RmwNzSeMj6E1C2-5" vertex="1">
                    <mxGeometry x="87.5" y="310" width="112.5" height="30" as="geometry"/>
                </mxCell>
                <mxCell id="vbJKLycOTlNOPMyoVTTL-87" value="Selecteer Ingredient" style="rounded=0;whiteSpace=wrap;html=1;" parent="69BrS9RmwNzSeMj6E1C2-5" vertex="1">
                    <mxGeometry x="87.5" y="360" width="112.5" height="30" as="geometry"/>
                </mxCell>
                <mxCell id="vbJKLycOTlNOPMyoVTTL-160" value="Selecteer Gerecht-Info" style="rounded=0;whiteSpace=wrap;html=1;" parent="69BrS9RmwNzSeMj6E1C2-5" vertex="1">
                    <mxGeometry x="87.5" y="410" width="112.5" height="30" as="geometry"/>
                </mxCell>
                <mxCell id="vbJKLycOTlNOPMyoVTTL-20" value="" style="endArrow=classic;html=1;exitX=0;exitY=0.25;exitDx=0;exitDy=0;entryX=0.5;entryY=0;entryDx=0;entryDy=0;" parent="69BrS9RmwNzSeMj6E1C2-2" source="vbJKLycOTlNOPMyoVTTL-15" target="69BrS9RmwNzSeMj6E1C2-14" edge="1">
                    <mxGeometry width="50" height="50" relative="1" as="geometry">
                        <mxPoint x="235.32999999999987" y="100" as="sourcePoint"/>
                        <mxPoint x="235" y="180" as="targetPoint"/>
                        <Array as="points">
                            <mxPoint x="235" y="135"/>
                        </Array>
                    </mxGeometry>
                </mxCell>
                <mxCell id="vbJKLycOTlNOPMyoVTTL-173" value="" style="endArrow=classic;html=1;rounded=0;entryX=1;entryY=0.5;entryDx=0;entryDy=0;exitX=0;exitY=0.5;exitDx=0;exitDy=0;" parent="69BrS9RmwNzSeMj6E1C2-2" source="vbJKLycOTlNOPMyoVTTL-87" target="vbJKLycOTlNOPMyoVTTL-88" edge="1">
                    <mxGeometry width="50" height="50" relative="1" as="geometry">
                        <mxPoint x="590" y="350" as="sourcePoint"/>
                        <mxPoint x="465" y="300" as="targetPoint"/>
                        <Array as="points">
                            <mxPoint x="500" y="335"/>
                        </Array>
                    </mxGeometry>
                </mxCell>
                <mxCell id="vbJKLycOTlNOPMyoVTTL-36" value="" style="endArrow=classic;html=1;rounded=0;entryX=1;entryY=0.5;entryDx=0;entryDy=0;exitX=0;exitY=0.5;exitDx=0;exitDy=0;" parent="69BrS9RmwNzSeMj6E1C2-2" source="vbJKLycOTlNOPMyoVTTL-33" target="vbJKLycOTlNOPMyoVTTL-34" edge="1">
                    <mxGeometry width="50" height="50" relative="1" as="geometry">
                        <mxPoint x="590" y="350" as="sourcePoint"/>
                        <mxPoint x="460" y="290" as="targetPoint"/>
                        <Array as="points">
                            <mxPoint x="500" y="290"/>
                        </Array>
                    </mxGeometry>
                </mxCell>
                <mxCell id="vbJKLycOTlNOPMyoVTTL-25" value="" style="endArrow=classic;html=1;rounded=0;entryX=1;entryY=0.5;entryDx=0;entryDy=0;exitX=0;exitY=0.5;exitDx=0;exitDy=0;" parent="69BrS9RmwNzSeMj6E1C2-2" source="vbJKLycOTlNOPMyoVTTL-24" target="vbJKLycOTlNOPMyoVTTL-21" edge="1">
                    <mxGeometry width="50" height="50" relative="1" as="geometry">
                        <mxPoint x="590" y="290" as="sourcePoint"/>
                        <mxPoint x="460" y="200" as="targetPoint"/>
                        <Array as="points">
                            <mxPoint x="500" y="200"/>
                        </Array>
                    </mxGeometry>
                </mxCell>
                <mxCell id="vbJKLycOTlNOPMyoVTTL-165" value="" style="endArrow=classic;html=1;rounded=0;exitX=0;exitY=0.25;exitDx=0;exitDy=0;entryX=1;entryY=0.25;entryDx=0;entryDy=0;" parent="69BrS9RmwNzSeMj6E1C2-2" source="vbJKLycOTlNOPMyoVTTL-160" target="vbJKLycOTlNOPMyoVTTL-161" edge="1">
                    <mxGeometry width="50" height="50" relative="1" as="geometry">
                        <mxPoint x="560" y="400" as="sourcePoint"/>
                        <mxPoint x="460" y="390" as="targetPoint"/>
                        <Array as="points">
                            <mxPoint x="500" y="378"/>
                        </Array>
                    </mxGeometry>
                </mxCell>
                <mxCell id="vbJKLycOTlNOPMyoVTTL-166" value="" style="endArrow=classic;html=1;rounded=0;exitX=0;exitY=0.25;exitDx=0;exitDy=0;entryX=1;entryY=0.5;entryDx=0;entryDy=0;" parent="69BrS9RmwNzSeMj6E1C2-2" source="vbJKLycOTlNOPMyoVTTL-160" target="vbJKLycOTlNOPMyoVTTL-162" edge="1">
                    <mxGeometry width="50" height="50" relative="1" as="geometry">
                        <mxPoint x="580" y="420" as="sourcePoint"/>
                        <mxPoint x="460" y="440" as="targetPoint"/>
                        <Array as="points"/>
                    </mxGeometry>
                </mxCell>
                <mxCell id="vbJKLycOTlNOPMyoVTTL-167" value="" style="endArrow=classic;html=1;rounded=0;exitX=0;exitY=0.25;exitDx=0;exitDy=0;entryX=1;entryY=0.25;entryDx=0;entryDy=0;" parent="69BrS9RmwNzSeMj6E1C2-2" source="vbJKLycOTlNOPMyoVTTL-160" target="vbJKLycOTlNOPMyoVTTL-163" edge="1">
                    <mxGeometry width="50" height="50" relative="1" as="geometry">
                        <mxPoint x="560" y="440" as="sourcePoint"/>
                        <mxPoint x="460" y="490" as="targetPoint"/>
                        <Array as="points">
                            <mxPoint x="500" y="478"/>
                        </Array>
                    </mxGeometry>
                </mxCell>
                <mxCell id="vbJKLycOTlNOPMyoVTTL-168" value="" style="endArrow=classic;html=1;rounded=0;exitX=0;exitY=0.25;exitDx=0;exitDy=0;entryX=1;entryY=0.5;entryDx=0;entryDy=0;" parent="69BrS9RmwNzSeMj6E1C2-2" source="vbJKLycOTlNOPMyoVTTL-160" target="vbJKLycOTlNOPMyoVTTL-164" edge="1">
                    <mxGeometry width="50" height="50" relative="1" as="geometry">
                        <mxPoint x="590" y="450" as="sourcePoint"/>
                        <mxPoint x="460" y="530" as="targetPoint"/>
                        <Array as="points">
                            <mxPoint x="500" y="535"/>
                        </Array>
                    </mxGeometry>
                </mxCell>
                <mxCell id="69BrS9RmwNzSeMj6E1C2-7" value="" style="endArrow=classic;html=1;" parent="69BrS9RmwNzSeMj6E1C2-1" edge="1">
                    <mxGeometry width="50" height="50" relative="1" as="geometry">
                        <mxPoint x="110" y="120" as="sourcePoint"/>
                        <mxPoint x="170" y="120" as="targetPoint"/>
                    </mxGeometry>
                </mxCell>
                <mxCell id="vbJKLycOTlNOPMyoVTTL-23" value="" style="endArrow=classic;html=1;rounded=0;entryX=0;entryY=0.5;entryDx=0;entryDy=0;" parent="69BrS9RmwNzSeMj6E1C2-1" target="vbJKLycOTlNOPMyoVTTL-21" edge="1">
                    <mxGeometry width="50" height="50" relative="1" as="geometry">
                        <mxPoint x="480" y="240" as="sourcePoint"/>
                        <mxPoint x="530" y="240" as="targetPoint"/>
                    </mxGeometry>
                </mxCell>
                <mxCell id="vbJKLycOTlNOPMyoVTTL-32" value="" style="endArrow=classic;html=1;rounded=0;entryX=0;entryY=0.5;entryDx=0;entryDy=0;" parent="69BrS9RmwNzSeMj6E1C2-1" target="vbJKLycOTlNOPMyoVTTL-29" edge="1">
                    <mxGeometry width="50" height="50" relative="1" as="geometry">
                        <mxPoint x="480" y="240" as="sourcePoint"/>
                        <mxPoint x="530" y="280" as="targetPoint"/>
                        <Array as="points">
                            <mxPoint x="510" y="285"/>
                        </Array>
                    </mxGeometry>
                </mxCell>
                <mxCell id="vbJKLycOTlNOPMyoVTTL-35" value="" style="endArrow=classic;html=1;rounded=0;entryX=0;entryY=0.5;entryDx=0;entryDy=0;" parent="69BrS9RmwNzSeMj6E1C2-1" target="vbJKLycOTlNOPMyoVTTL-34" edge="1">
                    <mxGeometry width="50" height="50" relative="1" as="geometry">
                        <mxPoint x="480" y="240" as="sourcePoint"/>
                        <mxPoint x="530" y="330" as="targetPoint"/>
                        <Array as="points">
                            <mxPoint x="510" y="330"/>
                        </Array>
                    </mxGeometry>
                </mxCell>
                <mxCell id="vbJKLycOTlNOPMyoVTTL-62" value="Keuken-Type" style="swimlane;childLayout=stackLayout;resizeParent=1;resizeParentMax=0;startSize=20;" parent="69BrS9RmwNzSeMj6E1C2-1" vertex="1">
                    <mxGeometry x="190" y="1646" width="790" height="390" as="geometry">
                        <mxRectangle x="180" y="50" width="60" height="20" as="alternateBounds"/>
                    </mxGeometry>
                </mxCell>
                <mxCell id="vbJKLycOTlNOPMyoVTTL-63" value="Controller" style="swimlane;startSize=20;" parent="vbJKLycOTlNOPMyoVTTL-62" vertex="1">
                    <mxGeometry y="20" width="150" height="370" as="geometry"/>
                </mxCell>
                <mxCell id="vbJKLycOTlNOPMyoVTTL-69" value="Business Logic" style="swimlane;startSize=20;" parent="vbJKLycOTlNOPMyoVTTL-62" vertex="1">
                    <mxGeometry x="150" y="20" width="360" height="370" as="geometry"/>
                </mxCell>
                <mxCell id="vbJKLycOTlNOPMyoVTTL-70" value="Selecteer Keuken-Type" style="rounded=0;whiteSpace=wrap;html=1;" parent="vbJKLycOTlNOPMyoVTTL-69" vertex="1">
                    <mxGeometry x="32.5" y="170" width="105" height="40" as="geometry"/>
                </mxCell>
                <mxCell id="vbJKLycOTlNOPMyoVTTL-76" value="Model" style="swimlane;startSize=20;" parent="vbJKLycOTlNOPMyoVTTL-62" vertex="1">
                    <mxGeometry x="510" y="20" width="280" height="370" as="geometry"/>
                </mxCell>
                <mxCell id="vbJKLycOTlNOPMyoVTTL-77" value="Keuken-Type" style="swimlane;childLayout=stackLayout;horizontal=1;startSize=30;horizontalStack=0;rounded=1;fontSize=14;fontStyle=0;strokeWidth=2;resizeParent=0;resizeLast=1;shadow=0;dashed=0;align=center;" parent="vbJKLycOTlNOPMyoVTTL-76" vertex="1">
                    <mxGeometry x="60" y="70" width="160" height="90" as="geometry"/>
                </mxCell>
                <mxCell id="vbJKLycOTlNOPMyoVTTL-78" value="id&#10;record_type [K, T]&#10;omschrijving" style="align=left;strokeColor=none;fillColor=none;spacingLeft=4;fontSize=12;verticalAlign=top;resizable=0;rotatable=0;part=1;" parent="vbJKLycOTlNOPMyoVTTL-77" vertex="1">
                    <mxGeometry y="30" width="160" height="60" as="geometry"/>
                </mxCell>
                <mxCell id="vbJKLycOTlNOPMyoVTTL-72" value="" style="endArrow=classic;html=1;exitX=0;exitY=0.25;exitDx=0;exitDy=0;entryX=0.5;entryY=0;entryDx=0;entryDy=0;" parent="vbJKLycOTlNOPMyoVTTL-62" source="vbJKLycOTlNOPMyoVTTL-78" target="vbJKLycOTlNOPMyoVTTL-70" edge="1">
                    <mxGeometry width="50" height="50" relative="1" as="geometry">
                        <mxPoint x="235.32999999999987" y="100" as="sourcePoint"/>
                        <mxPoint x="235" y="180" as="targetPoint"/>
                        <Array as="points">
                            <mxPoint x="235" y="135"/>
                        </Array>
                    </mxGeometry>
                </mxCell>
                <mxCell id="vbJKLycOTlNOPMyoVTTL-90" value="" style="endArrow=classic;html=1;rounded=0;" parent="69BrS9RmwNzSeMj6E1C2-1" edge="1">
                    <mxGeometry width="50" height="50" relative="1" as="geometry">
                        <mxPoint x="480" y="240" as="sourcePoint"/>
                        <mxPoint x="540" y="370" as="targetPoint"/>
                        <Array as="points">
                            <mxPoint x="510" y="370"/>
                        </Array>
                    </mxGeometry>
                </mxCell>
                <mxCell id="vbJKLycOTlNOPMyoVTTL-91" value="Ingredient" style="swimlane;childLayout=stackLayout;resizeParent=1;resizeParentMax=0;startSize=20;" parent="69BrS9RmwNzSeMj6E1C2-1" vertex="1">
                    <mxGeometry x="190" y="821" width="790" height="390" as="geometry">
                        <mxRectangle x="180" y="50" width="60" height="20" as="alternateBounds"/>
                    </mxGeometry>
                </mxCell>
                <mxCell id="vbJKLycOTlNOPMyoVTTL-92" value="Controller" style="swimlane;startSize=20;" parent="vbJKLycOTlNOPMyoVTTL-91" vertex="1">
                    <mxGeometry y="20" width="150" height="370" as="geometry"/>
                </mxCell>
                <mxCell id="vbJKLycOTlNOPMyoVTTL-93" value="Business Logic" style="swimlane;startSize=20;" parent="vbJKLycOTlNOPMyoVTTL-91" vertex="1">
                    <mxGeometry x="150" y="20" width="360" height="370" as="geometry"/>
                </mxCell>
                <mxCell id="vbJKLycOTlNOPMyoVTTL-94" value="Selecteer Ingredient" style="rounded=0;whiteSpace=wrap;html=1;" parent="vbJKLycOTlNOPMyoVTTL-93" vertex="1">
                    <mxGeometry x="32.5" y="170" width="105" height="40" as="geometry"/>
                </mxCell>
                <mxCell id="vbJKLycOTlNOPMyoVTTL-114" value="Ophalen Artikel" style="rounded=0;whiteSpace=wrap;html=1;" parent="vbJKLycOTlNOPMyoVTTL-93" vertex="1">
                    <mxGeometry x="200" y="175" width="110" height="30" as="geometry"/>
                </mxCell>
                <mxCell id="vbJKLycOTlNOPMyoVTTL-115" value="" style="endArrow=classic;html=1;rounded=0;exitX=1;exitY=0.5;exitDx=0;exitDy=0;entryX=0;entryY=0.5;entryDx=0;entryDy=0;" parent="vbJKLycOTlNOPMyoVTTL-93" source="vbJKLycOTlNOPMyoVTTL-94" target="vbJKLycOTlNOPMyoVTTL-114" edge="1">
                    <mxGeometry width="50" height="50" relative="1" as="geometry">
                        <mxPoint x="150" y="190" as="sourcePoint"/>
                        <mxPoint x="190" y="190" as="targetPoint"/>
                    </mxGeometry>
                </mxCell>
                <mxCell id="vbJKLycOTlNOPMyoVTTL-188" value="Bereken Ingredient totaal prijs" style="rounded=0;whiteSpace=wrap;html=1;" parent="vbJKLycOTlNOPMyoVTTL-93" vertex="1">
                    <mxGeometry x="200" y="228" width="110" height="30" as="geometry"/>
                </mxCell>
                <mxCell id="vbJKLycOTlNOPMyoVTTL-189" value="" style="endArrow=classic;html=1;rounded=0;entryX=0;entryY=0.5;entryDx=0;entryDy=0;exitX=1;exitY=0.75;exitDx=0;exitDy=0;" parent="vbJKLycOTlNOPMyoVTTL-93" source="vbJKLycOTlNOPMyoVTTL-94" target="vbJKLycOTlNOPMyoVTTL-188" edge="1">
                    <mxGeometry width="50" height="50" relative="1" as="geometry">
                        <mxPoint x="170" y="218" as="sourcePoint"/>
                        <mxPoint x="200" y="205" as="targetPoint"/>
                        <Array as="points">
                            <mxPoint x="180" y="243"/>
                        </Array>
                    </mxGeometry>
                </mxCell>
                <mxCell id="vbJKLycOTlNOPMyoVTTL-195" value="Bereken Ingredient totaal calorieën" style="rounded=0;whiteSpace=wrap;html=1;" parent="vbJKLycOTlNOPMyoVTTL-93" vertex="1">
                    <mxGeometry x="200" y="278" width="110" height="30" as="geometry"/>
                </mxCell>
                <mxCell id="vbJKLycOTlNOPMyoVTTL-196" value="" style="endArrow=classic;html=1;rounded=0;entryX=0;entryY=0.5;entryDx=0;entryDy=0;exitX=1;exitY=0.75;exitDx=0;exitDy=0;" parent="vbJKLycOTlNOPMyoVTTL-93" source="vbJKLycOTlNOPMyoVTTL-94" target="vbJKLycOTlNOPMyoVTTL-195" edge="1">
                    <mxGeometry width="50" height="50" relative="1" as="geometry">
                        <mxPoint x="130" y="238" as="sourcePoint"/>
                        <mxPoint x="182.5" y="296" as="targetPoint"/>
                        <Array as="points">
                            <mxPoint x="180" y="293"/>
                        </Array>
                    </mxGeometry>
                </mxCell>
                <mxCell id="vbJKLycOTlNOPMyoVTTL-96" value="Model" style="swimlane;startSize=20;" parent="vbJKLycOTlNOPMyoVTTL-91" vertex="1">
                    <mxGeometry x="510" y="20" width="280" height="370" as="geometry"/>
                </mxCell>
                <mxCell id="vbJKLycOTlNOPMyoVTTL-97" value="Ingredient" style="swimlane;childLayout=stackLayout;horizontal=1;startSize=30;horizontalStack=0;rounded=1;fontSize=14;fontStyle=0;strokeWidth=2;resizeParent=0;resizeLast=1;shadow=0;dashed=0;align=center;" parent="vbJKLycOTlNOPMyoVTTL-96" vertex="1">
                    <mxGeometry x="60" y="70" width="160" height="100" as="geometry"/>
                </mxCell>
                <mxCell id="vbJKLycOTlNOPMyoVTTL-98" value="id&#10;gerecht_id&#10;artikel_id&#10;aantal" style="align=left;strokeColor=none;fillColor=none;spacingLeft=4;fontSize=12;verticalAlign=top;resizable=0;rotatable=0;part=1;" parent="vbJKLycOTlNOPMyoVTTL-97" vertex="1">
                    <mxGeometry y="30" width="160" height="70" as="geometry"/>
                </mxCell>
                <mxCell id="vbJKLycOTlNOPMyoVTTL-118" value="Selecteer Artikel" style="rounded=0;whiteSpace=wrap;html=1;" parent="vbJKLycOTlNOPMyoVTTL-96" vertex="1">
                    <mxGeometry x="83.75" y="210" width="112.5" height="30" as="geometry"/>
                </mxCell>
                <mxCell id="vbJKLycOTlNOPMyoVTTL-95" value="" style="endArrow=classic;html=1;startArrow=none;exitX=0;exitY=0.25;exitDx=0;exitDy=0;entryX=0.5;entryY=0;entryDx=0;entryDy=0;" parent="vbJKLycOTlNOPMyoVTTL-91" source="vbJKLycOTlNOPMyoVTTL-98" target="vbJKLycOTlNOPMyoVTTL-94" edge="1">
                    <mxGeometry width="50" height="50" relative="1" as="geometry">
                        <mxPoint x="350" y="130" as="sourcePoint"/>
                        <mxPoint x="235" y="180" as="targetPoint"/>
                        <Array as="points">
                            <mxPoint x="235" y="138"/>
                        </Array>
                    </mxGeometry>
                </mxCell>
                <mxCell id="vbJKLycOTlNOPMyoVTTL-119" value="" style="endArrow=classic;html=1;rounded=0;entryX=1;entryY=0.5;entryDx=0;entryDy=0;exitX=0;exitY=0.5;exitDx=0;exitDy=0;" parent="vbJKLycOTlNOPMyoVTTL-91" source="vbJKLycOTlNOPMyoVTTL-118" target="vbJKLycOTlNOPMyoVTTL-114" edge="1">
                    <mxGeometry width="50" height="50" relative="1" as="geometry">
                        <mxPoint x="590" y="240" as="sourcePoint"/>
                        <mxPoint x="470" y="210" as="targetPoint"/>
                        <Array as="points">
                            <mxPoint x="500" y="210"/>
                        </Array>
                    </mxGeometry>
                </mxCell>
                <mxCell id="vbJKLycOTlNOPMyoVTTL-128" value="Artikel" style="swimlane;childLayout=stackLayout;resizeParent=1;resizeParentMax=0;startSize=20;" parent="69BrS9RmwNzSeMj6E1C2-1" vertex="1">
                    <mxGeometry x="190" y="1232" width="790" height="390" as="geometry">
                        <mxRectangle x="180" y="50" width="60" height="20" as="alternateBounds"/>
                    </mxGeometry>
                </mxCell>
                <mxCell id="vbJKLycOTlNOPMyoVTTL-129" value="Controller" style="swimlane;startSize=20;" parent="vbJKLycOTlNOPMyoVTTL-128" vertex="1">
                    <mxGeometry y="20" width="150" height="370" as="geometry"/>
                </mxCell>
                <mxCell id="vbJKLycOTlNOPMyoVTTL-130" value="Business Logic" style="swimlane;startSize=20;" parent="vbJKLycOTlNOPMyoVTTL-128" vertex="1">
                    <mxGeometry x="150" y="20" width="360" height="370" as="geometry"/>
                </mxCell>
                <mxCell id="vbJKLycOTlNOPMyoVTTL-131" value="Selecteer Artikel" style="rounded=0;whiteSpace=wrap;html=1;" parent="vbJKLycOTlNOPMyoVTTL-130" vertex="1">
                    <mxGeometry x="32.5" y="170" width="105" height="40" as="geometry"/>
                </mxCell>
                <mxCell id="vbJKLycOTlNOPMyoVTTL-133" value="Model" style="swimlane;startSize=20;" parent="vbJKLycOTlNOPMyoVTTL-128" vertex="1">
                    <mxGeometry x="510" y="20" width="280" height="370" as="geometry"/>
                </mxCell>
                <mxCell id="vbJKLycOTlNOPMyoVTTL-134" value="Artikel" style="swimlane;childLayout=stackLayout;horizontal=1;startSize=30;horizontalStack=0;rounded=1;fontSize=14;fontStyle=0;strokeWidth=2;resizeParent=0;resizeLast=1;shadow=0;dashed=0;align=center;" parent="vbJKLycOTlNOPMyoVTTL-133" vertex="1">
                    <mxGeometry x="60" y="70" width="160" height="140" as="geometry"/>
                </mxCell>
                <mxCell id="vbJKLycOTlNOPMyoVTTL-135" value="id&#10;naam&#10;omschrijving&#10;prijs&#10;eenheid&#10;verpakking&#10;calorieën" style="align=left;strokeColor=none;fillColor=none;spacingLeft=4;fontSize=12;verticalAlign=top;resizable=0;rotatable=0;part=1;" parent="vbJKLycOTlNOPMyoVTTL-134" vertex="1">
                    <mxGeometry y="30" width="160" height="110" as="geometry"/>
                </mxCell>
                <mxCell id="vbJKLycOTlNOPMyoVTTL-132" value="" style="endArrow=classic;html=1;exitX=0;exitY=0.25;exitDx=0;exitDy=0;entryX=0.5;entryY=0;entryDx=0;entryDy=0;" parent="vbJKLycOTlNOPMyoVTTL-128" source="vbJKLycOTlNOPMyoVTTL-135" target="vbJKLycOTlNOPMyoVTTL-131" edge="1">
                    <mxGeometry width="50" height="50" relative="1" as="geometry">
                        <mxPoint x="235.32999999999987" y="100" as="sourcePoint"/>
                        <mxPoint x="235" y="180" as="targetPoint"/>
                        <Array as="points">
                            <mxPoint x="235" y="148"/>
                        </Array>
                    </mxGeometry>
                </mxCell>
                <mxCell id="vbJKLycOTlNOPMyoVTTL-140" value="Gerecht-Info" style="swimlane;childLayout=stackLayout;resizeParent=1;resizeParentMax=0;startSize=20;" parent="69BrS9RmwNzSeMj6E1C2-1" vertex="1">
                    <mxGeometry x="190" y="2054" width="790" height="390" as="geometry">
                        <mxRectangle x="180" y="50" width="60" height="20" as="alternateBounds"/>
                    </mxGeometry>
                </mxCell>
                <mxCell id="vbJKLycOTlNOPMyoVTTL-141" value="Controller" style="swimlane;startSize=20;" parent="vbJKLycOTlNOPMyoVTTL-140" vertex="1">
                    <mxGeometry y="20" width="150" height="370" as="geometry"/>
                </mxCell>
                <mxCell id="vbJKLycOTlNOPMyoVTTL-142" value="Business Logic" style="swimlane;startSize=20;" parent="vbJKLycOTlNOPMyoVTTL-140" vertex="1">
                    <mxGeometry x="150" y="20" width="360" height="370" as="geometry"/>
                </mxCell>
                <mxCell id="vbJKLycOTlNOPMyoVTTL-143" value="Selecteer Gerecht-Info" style="rounded=0;whiteSpace=wrap;html=1;" parent="vbJKLycOTlNOPMyoVTTL-142" vertex="1">
                    <mxGeometry x="32.5" y="170" width="105" height="40" as="geometry"/>
                </mxCell>
                <mxCell id="vbJKLycOTlNOPMyoVTTL-145" value="Model" style="swimlane;startSize=20;" parent="vbJKLycOTlNOPMyoVTTL-140" vertex="1">
                    <mxGeometry x="510" y="20" width="280" height="370" as="geometry"/>
                </mxCell>
                <mxCell id="vbJKLycOTlNOPMyoVTTL-146" value="Gerecht-Info" style="swimlane;childLayout=stackLayout;horizontal=1;startSize=30;horizontalStack=0;rounded=1;fontSize=14;fontStyle=0;strokeWidth=2;resizeParent=0;resizeLast=1;shadow=0;dashed=0;align=center;" parent="vbJKLycOTlNOPMyoVTTL-145" vertex="1">
                    <mxGeometry x="60" y="70" width="160" height="140" as="geometry"/>
                </mxCell>
                <mxCell id="vbJKLycOTlNOPMyoVTTL-147" value="id&#10;record-type [O, B, W, F]&#10;gerecht_id&#10;user_id&#10;datum&#10;nummeriekveld&#10;tekstveld" style="align=left;strokeColor=none;fillColor=none;spacingLeft=4;fontSize=12;verticalAlign=top;resizable=0;rotatable=0;part=1;" parent="vbJKLycOTlNOPMyoVTTL-146" vertex="1">
                    <mxGeometry y="30" width="160" height="110" as="geometry"/>
                </mxCell>
                <mxCell id="vbJKLycOTlNOPMyoVTTL-144" value="" style="endArrow=classic;html=1;exitX=0;exitY=0.25;exitDx=0;exitDy=0;entryX=0.5;entryY=0;entryDx=0;entryDy=0;" parent="vbJKLycOTlNOPMyoVTTL-140" source="vbJKLycOTlNOPMyoVTTL-147" target="vbJKLycOTlNOPMyoVTTL-143" edge="1">
                    <mxGeometry width="50" height="50" relative="1" as="geometry">
                        <mxPoint x="235.32999999999987" y="100" as="sourcePoint"/>
                        <mxPoint x="235" y="180" as="targetPoint"/>
                        <Array as="points">
                            <mxPoint x="235" y="150"/>
                        </Array>
                    </mxGeometry>
                </mxCell>
                <mxCell id="vbJKLycOTlNOPMyoVTTL-152" value="User" style="swimlane;childLayout=stackLayout;resizeParent=1;resizeParentMax=0;startSize=20;" parent="69BrS9RmwNzSeMj6E1C2-1" vertex="1">
                    <mxGeometry x="190" y="2465" width="790" height="390" as="geometry">
                        <mxRectangle x="180" y="50" width="60" height="20" as="alternateBounds"/>
                    </mxGeometry>
                </mxCell>
                <mxCell id="vbJKLycOTlNOPMyoVTTL-153" value="Controller" style="swimlane;startSize=20;" parent="vbJKLycOTlNOPMyoVTTL-152" vertex="1">
                    <mxGeometry y="20" width="150" height="370" as="geometry"/>
                </mxCell>
                <mxCell id="vbJKLycOTlNOPMyoVTTL-154" value="Business Logic" style="swimlane;startSize=20;" parent="vbJKLycOTlNOPMyoVTTL-152" vertex="1">
                    <mxGeometry x="150" y="20" width="360" height="370" as="geometry"/>
                </mxCell>
                <mxCell id="vbJKLycOTlNOPMyoVTTL-155" value="Selecteer User" style="rounded=0;whiteSpace=wrap;html=1;" parent="vbJKLycOTlNOPMyoVTTL-154" vertex="1">
                    <mxGeometry x="32.5" y="170" width="105" height="40" as="geometry"/>
                </mxCell>
                <mxCell id="vbJKLycOTlNOPMyoVTTL-157" value="Model" style="swimlane;startSize=20;" parent="vbJKLycOTlNOPMyoVTTL-152" vertex="1">
                    <mxGeometry x="510" y="20" width="280" height="370" as="geometry"/>
                </mxCell>
                <mxCell id="vbJKLycOTlNOPMyoVTTL-158" value="User" style="swimlane;childLayout=stackLayout;horizontal=1;startSize=30;horizontalStack=0;rounded=1;fontSize=14;fontStyle=0;strokeWidth=2;resizeParent=0;resizeLast=1;shadow=0;dashed=0;align=center;" parent="vbJKLycOTlNOPMyoVTTL-157" vertex="1">
                    <mxGeometry x="60" y="70" width="160" height="120" as="geometry"/>
                </mxCell>
                <mxCell id="vbJKLycOTlNOPMyoVTTL-159" value="id&#10;username&#10;password&#10;email&#10;afbeelding" style="align=left;strokeColor=none;fillColor=none;spacingLeft=4;fontSize=12;verticalAlign=top;resizable=0;rotatable=0;part=1;" parent="vbJKLycOTlNOPMyoVTTL-158" vertex="1">
                    <mxGeometry y="30" width="160" height="90" as="geometry"/>
                </mxCell>
                <mxCell id="vbJKLycOTlNOPMyoVTTL-156" value="" style="endArrow=classic;html=1;exitX=0;exitY=0.25;exitDx=0;exitDy=0;entryX=0.5;entryY=0;entryDx=0;entryDy=0;" parent="vbJKLycOTlNOPMyoVTTL-152" source="vbJKLycOTlNOPMyoVTTL-159" target="vbJKLycOTlNOPMyoVTTL-155" edge="1">
                    <mxGeometry width="50" height="50" relative="1" as="geometry">
                        <mxPoint x="235.32999999999987" y="100" as="sourcePoint"/>
                        <mxPoint x="235" y="180" as="targetPoint"/>
                        <Array as="points">
                            <mxPoint x="235" y="143"/>
                        </Array>
                    </mxGeometry>
                </mxCell>
                <mxCell id="vbJKLycOTlNOPMyoVTTL-175" value="Actor" style="shape=umlActor;verticalLabelPosition=bottom;verticalAlign=top;html=1;outlineConnect=0;" parent="69BrS9RmwNzSeMj6E1C2-1" vertex="1">
                    <mxGeometry x="60" y="90" width="30" height="60" as="geometry"/>
                </mxCell>
            </root>
        </mxGraphModel>
    </diagram>
    <diagram name="ASD-v2" id="ZjJUUbXmPA3zz1CFmAu7">
        <mxGraphModel dx="833" dy="617" grid="1" gridSize="10" guides="1" tooltips="1" connect="1" arrows="1" fold="1" page="1" pageScale="1" pageWidth="850" pageHeight="1100" math="0" shadow="0">
            <root>
                <mxCell id="FzCJPSD5qMtwiWDOWthd-0"/>
                <mxCell id="FzCJPSD5qMtwiWDOWthd-1" parent="FzCJPSD5qMtwiWDOWthd-0"/>
                <mxCell id="FzCJPSD5qMtwiWDOWthd-2" value="Gerecht" style="swimlane;childLayout=stackLayout;resizeParent=1;resizeParentMax=0;startSize=20;" parent="FzCJPSD5qMtwiWDOWthd-1" vertex="1">
                    <mxGeometry x="190" y="40" width="790" height="740" as="geometry">
                        <mxRectangle x="180" y="50" width="60" height="20" as="alternateBounds"/>
                    </mxGeometry>
                </mxCell>
                <mxCell id="FzCJPSD5qMtwiWDOWthd-3" value="Controller" style="swimlane;startSize=20;" parent="FzCJPSD5qMtwiWDOWthd-2" vertex="1">
                    <mxGeometry y="20" width="150" height="720" as="geometry"/>
                </mxCell>
                <mxCell id="FzCJPSD5qMtwiWDOWthd-4" value="initialisatie" style="rounded=0;whiteSpace=wrap;html=1;" parent="FzCJPSD5qMtwiWDOWthd-3" vertex="1">
                    <mxGeometry x="30" y="50" width="90" height="20" as="geometry"/>
                </mxCell>
                <mxCell id="FzCJPSD5qMtwiWDOWthd-5" value="" style="endArrow=classic;html=1;exitX=0.5;exitY=1;exitDx=0;exitDy=0;entryX=0.5;entryY=0;entryDx=0;entryDy=0;" parent="FzCJPSD5qMtwiWDOWthd-3" source="FzCJPSD5qMtwiWDOWthd-4" target="FzCJPSD5qMtwiWDOWthd-6" edge="1">
                    <mxGeometry width="50" height="50" relative="1" as="geometry">
                        <mxPoint x="74.33000000000001" y="90" as="sourcePoint"/>
                        <mxPoint x="74" y="160" as="targetPoint"/>
                    </mxGeometry>
                </mxCell>
                <mxCell id="FzCJPSD5qMtwiWDOWthd-6" value="Gerecht ophalen" style="rounded=0;whiteSpace=wrap;html=1;" parent="FzCJPSD5qMtwiWDOWthd-3" vertex="1">
                    <mxGeometry x="22.5" y="170" width="105" height="20" as="geometry"/>
                </mxCell>
                <mxCell id="FzCJPSD5qMtwiWDOWthd-7" value="" style="endArrow=classic;html=1;exitX=0.5;exitY=1;exitDx=0;exitDy=0;entryX=0.5;entryY=0;entryDx=0;entryDy=0;" parent="FzCJPSD5qMtwiWDOWthd-3" source="FzCJPSD5qMtwiWDOWthd-6" target="FzCJPSD5qMtwiWDOWthd-8" edge="1">
                    <mxGeometry width="50" height="50" relative="1" as="geometry">
                        <mxPoint x="74.89999999999992" y="205" as="sourcePoint"/>
                        <mxPoint x="75" y="280" as="targetPoint"/>
                    </mxGeometry>
                </mxCell>
                <mxCell id="FzCJPSD5qMtwiWDOWthd-8" value="Gerecht tonen" style="rounded=0;whiteSpace=wrap;html=1;" parent="FzCJPSD5qMtwiWDOWthd-3" vertex="1">
                    <mxGeometry x="22.5" y="290" width="105" height="20" as="geometry"/>
                </mxCell>
                <mxCell id="FzCJPSD5qMtwiWDOWthd-9" value="Business Logic" style="swimlane;startSize=20;" parent="FzCJPSD5qMtwiWDOWthd-2" vertex="1">
                    <mxGeometry x="150" y="20" width="360" height="720" as="geometry"/>
                </mxCell>
                <mxCell id="FzCJPSD5qMtwiWDOWthd-10" value="Selecteer Gerecht" style="rounded=0;whiteSpace=wrap;html=1;" parent="FzCJPSD5qMtwiWDOWthd-9" vertex="1">
                    <mxGeometry x="32.5" y="170" width="105" height="20" as="geometry"/>
                </mxCell>
                <mxCell id="FzCJPSD5qMtwiWDOWthd-11" value="" style="endArrow=classic;html=1;" parent="FzCJPSD5qMtwiWDOWthd-9" edge="1">
                    <mxGeometry width="50" height="50" relative="1" as="geometry">
                        <mxPoint x="30" y="180" as="sourcePoint"/>
                        <mxPoint x="-20" y="180" as="targetPoint"/>
                    </mxGeometry>
                </mxCell>
                <mxCell id="FzCJPSD5qMtwiWDOWthd-12" value="Ophalen Keuken" style="rounded=0;whiteSpace=wrap;html=1;" parent="FzCJPSD5qMtwiWDOWthd-9" vertex="1">
                    <mxGeometry x="200" y="170" width="105" height="20" as="geometry"/>
                </mxCell>
                <mxCell id="FzCJPSD5qMtwiWDOWthd-13" value="Ophalen User" style="rounded=0;whiteSpace=wrap;html=1;" parent="FzCJPSD5qMtwiWDOWthd-9" vertex="1">
                    <mxGeometry x="200" y="260" width="105" height="20" as="geometry"/>
                </mxCell>
                <mxCell id="FzCJPSD5qMtwiWDOWthd-14" value="Ophalen Ingredienten" style="rounded=0;whiteSpace=wrap;html=1;" parent="FzCJPSD5qMtwiWDOWthd-9" vertex="1">
                    <mxGeometry x="200" y="300" width="105" height="30" as="geometry"/>
                </mxCell>
                <mxCell id="FzCJPSD5qMtwiWDOWthd-15" value="Ophalen Bereidingswijze" style="rounded=0;whiteSpace=wrap;html=1;" parent="FzCJPSD5qMtwiWDOWthd-9" vertex="1">
                    <mxGeometry x="200" y="350" width="105" height="30" as="geometry"/>
                </mxCell>
                <mxCell id="FzCJPSD5qMtwiWDOWthd-16" value="Ophalen Opmerkingen" style="rounded=0;whiteSpace=wrap;html=1;" parent="FzCJPSD5qMtwiWDOWthd-9" vertex="1">
                    <mxGeometry x="200" y="400" width="105" height="30" as="geometry"/>
                </mxCell>
                <mxCell id="FzCJPSD5qMtwiWDOWthd-17" value="Ophalen Waarderingen" style="rounded=0;whiteSpace=wrap;html=1;" parent="FzCJPSD5qMtwiWDOWthd-9" vertex="1">
                    <mxGeometry x="200" y="450" width="105" height="30" as="geometry"/>
                </mxCell>
                <mxCell id="FzCJPSD5qMtwiWDOWthd-18" value="Ophalen Favorieten" style="rounded=0;whiteSpace=wrap;html=1;" parent="FzCJPSD5qMtwiWDOWthd-9" vertex="1">
                    <mxGeometry x="200" y="500" width="105" height="30" as="geometry"/>
                </mxCell>
                <mxCell id="FzCJPSD5qMtwiWDOWthd-19" value="" style="endArrow=classic;html=1;rounded=0;" parent="FzCJPSD5qMtwiWDOWthd-9" edge="1">
                    <mxGeometry width="50" height="50" relative="1" as="geometry">
                        <mxPoint x="140" y="180" as="sourcePoint"/>
                        <mxPoint x="200" y="370" as="targetPoint"/>
                        <Array as="points">
                            <mxPoint x="170" y="370"/>
                        </Array>
                    </mxGeometry>
                </mxCell>
                <mxCell id="FzCJPSD5qMtwiWDOWthd-20" value="" style="endArrow=classic;html=1;rounded=0;" parent="FzCJPSD5qMtwiWDOWthd-9" edge="1">
                    <mxGeometry width="50" height="50" relative="1" as="geometry">
                        <mxPoint x="140" y="180" as="sourcePoint"/>
                        <mxPoint x="200" y="410" as="targetPoint"/>
                        <Array as="points">
                            <mxPoint x="170" y="410"/>
                        </Array>
                    </mxGeometry>
                </mxCell>
                <mxCell id="FzCJPSD5qMtwiWDOWthd-21" value="" style="endArrow=classic;html=1;rounded=0;" parent="FzCJPSD5qMtwiWDOWthd-9" edge="1">
                    <mxGeometry width="50" height="50" relative="1" as="geometry">
                        <mxPoint x="140" y="180" as="sourcePoint"/>
                        <mxPoint x="200" y="460" as="targetPoint"/>
                        <Array as="points">
                            <mxPoint x="170" y="460"/>
                        </Array>
                    </mxGeometry>
                </mxCell>
                <mxCell id="FzCJPSD5qMtwiWDOWthd-22" value="" style="endArrow=classic;html=1;rounded=0;" parent="FzCJPSD5qMtwiWDOWthd-9" edge="1">
                    <mxGeometry width="50" height="50" relative="1" as="geometry">
                        <mxPoint x="140" y="180" as="sourcePoint"/>
                        <mxPoint x="200" y="510" as="targetPoint"/>
                        <Array as="points">
                            <mxPoint x="170" y="510"/>
                        </Array>
                    </mxGeometry>
                </mxCell>
                <mxCell id="FzCJPSD5qMtwiWDOWthd-23" value="Bereken Gerecht gemiddelde waardering" style="rounded=0;whiteSpace=wrap;html=1;" parent="FzCJPSD5qMtwiWDOWthd-9" vertex="1">
                    <mxGeometry x="200" y="556" width="104" height="50" as="geometry"/>
                </mxCell>
                <mxCell id="FzCJPSD5qMtwiWDOWthd-24" value="" style="endArrow=classic;html=1;rounded=0;entryX=0;entryY=0.5;entryDx=0;entryDy=0;exitX=0.5;exitY=1;exitDx=0;exitDy=0;" parent="FzCJPSD5qMtwiWDOWthd-9" source="FzCJPSD5qMtwiWDOWthd-10" target="FzCJPSD5qMtwiWDOWthd-23" edge="1">
                    <mxGeometry width="50" height="50" relative="1" as="geometry">
                        <mxPoint x="110" y="200" as="sourcePoint"/>
                        <mxPoint x="210" y="585" as="targetPoint"/>
                        <Array as="points">
                            <mxPoint x="170" y="580"/>
                        </Array>
                    </mxGeometry>
                </mxCell>
                <mxCell id="FzCJPSD5qMtwiWDOWthd-25" value="Bereken Gerecht totaal calorieën" style="rounded=0;whiteSpace=wrap;html=1;" parent="FzCJPSD5qMtwiWDOWthd-9" vertex="1">
                    <mxGeometry x="200" y="616" width="105" height="30" as="geometry"/>
                </mxCell>
                <mxCell id="FzCJPSD5qMtwiWDOWthd-26" value="" style="endArrow=classic;html=1;rounded=0;exitX=0.5;exitY=1;exitDx=0;exitDy=0;entryX=0;entryY=0.5;entryDx=0;entryDy=0;" parent="FzCJPSD5qMtwiWDOWthd-9" source="FzCJPSD5qMtwiWDOWthd-10" target="FzCJPSD5qMtwiWDOWthd-25" edge="1">
                    <mxGeometry width="50" height="50" relative="1" as="geometry">
                        <mxPoint x="190" y="380" as="sourcePoint"/>
                        <mxPoint x="240" y="330" as="targetPoint"/>
                        <Array as="points">
                            <mxPoint x="170" y="630"/>
                        </Array>
                    </mxGeometry>
                </mxCell>
                <mxCell id="FzCJPSD5qMtwiWDOWthd-27" value="Bereken Gerecht totaal prijs" style="rounded=0;whiteSpace=wrap;html=1;" parent="FzCJPSD5qMtwiWDOWthd-9" vertex="1">
                    <mxGeometry x="199" y="660" width="105" height="30" as="geometry"/>
                </mxCell>
                <mxCell id="FzCJPSD5qMtwiWDOWthd-28" value="" style="endArrow=classic;html=1;rounded=0;exitX=0.5;exitY=1;exitDx=0;exitDy=0;entryX=0;entryY=0.5;entryDx=0;entryDy=0;" parent="FzCJPSD5qMtwiWDOWthd-9" source="FzCJPSD5qMtwiWDOWthd-10" target="FzCJPSD5qMtwiWDOWthd-27" edge="1">
                    <mxGeometry width="50" height="50" relative="1" as="geometry">
                        <mxPoint x="95" y="200" as="sourcePoint"/>
                        <mxPoint x="210" y="641" as="targetPoint"/>
                        <Array as="points">
                            <mxPoint x="170" y="675"/>
                        </Array>
                    </mxGeometry>
                </mxCell>
                <mxCell id="FzCJPSD5qMtwiWDOWthd-29" value="Model" style="swimlane;startSize=20;" parent="FzCJPSD5qMtwiWDOWthd-2" vertex="1">
                    <mxGeometry x="510" y="20" width="280" height="720" as="geometry"/>
                </mxCell>
                <mxCell id="FzCJPSD5qMtwiWDOWthd-30" value="Gerecht" style="swimlane;childLayout=stackLayout;horizontal=1;startSize=30;horizontalStack=0;rounded=1;fontSize=14;fontStyle=0;strokeWidth=2;resizeParent=0;resizeLast=1;shadow=0;dashed=0;align=center;" parent="FzCJPSD5qMtwiWDOWthd-29" vertex="1">
                    <mxGeometry x="60" y="50" width="160" height="170" as="geometry"/>
                </mxCell>
                <mxCell id="FzCJPSD5qMtwiWDOWthd-31" value="id&#10;keuken_id&#10;type_id&#10;user_id&#10;datum_toegevoegd&#10;titel&#10;korte_omschrijving&#10;lange_omschrijving&#10;afbeelding" style="align=left;strokeColor=none;fillColor=none;spacingLeft=4;fontSize=12;verticalAlign=top;resizable=0;rotatable=0;part=1;" parent="FzCJPSD5qMtwiWDOWthd-30" vertex="1">
                    <mxGeometry y="30" width="160" height="140" as="geometry"/>
                </mxCell>
                <mxCell id="FzCJPSD5qMtwiWDOWthd-32" value="Selecteer Keuken-Type" style="rounded=0;whiteSpace=wrap;html=1;" parent="FzCJPSD5qMtwiWDOWthd-29" vertex="1">
                    <mxGeometry x="87.5" y="260" width="112.5" height="30" as="geometry"/>
                </mxCell>
                <mxCell id="FzCJPSD5qMtwiWDOWthd-33" value="Ophalen Type" style="rounded=0;whiteSpace=wrap;html=1;" parent="FzCJPSD5qMtwiWDOWthd-29" vertex="1">
                    <mxGeometry x="-160" y="215" width="105" height="20" as="geometry"/>
                </mxCell>
                <mxCell id="FzCJPSD5qMtwiWDOWthd-34" value="" style="endArrow=classic;html=1;rounded=0;entryX=1;entryY=0.5;entryDx=0;entryDy=0;exitX=0;exitY=0.5;exitDx=0;exitDy=0;" parent="FzCJPSD5qMtwiWDOWthd-29" source="FzCJPSD5qMtwiWDOWthd-32" target="FzCJPSD5qMtwiWDOWthd-33" edge="1">
                    <mxGeometry width="50" height="50" relative="1" as="geometry">
                        <mxPoint x="80" y="270" as="sourcePoint"/>
                        <mxPoint x="-50" y="225" as="targetPoint"/>
                        <Array as="points">
                            <mxPoint x="-10" y="225"/>
                        </Array>
                    </mxGeometry>
                </mxCell>
                <mxCell id="FzCJPSD5qMtwiWDOWthd-35" value="Selecteer User" style="rounded=0;whiteSpace=wrap;html=1;" parent="FzCJPSD5qMtwiWDOWthd-29" vertex="1">
                    <mxGeometry x="87.5" y="310" width="112.5" height="30" as="geometry"/>
                </mxCell>
                <mxCell id="FzCJPSD5qMtwiWDOWthd-36" value="Selecteer Ingredient" style="rounded=0;whiteSpace=wrap;html=1;" parent="FzCJPSD5qMtwiWDOWthd-29" vertex="1">
                    <mxGeometry x="87.5" y="360" width="112.5" height="30" as="geometry"/>
                </mxCell>
                <mxCell id="FzCJPSD5qMtwiWDOWthd-37" value="Selecteer Gerecht-Info" style="rounded=0;whiteSpace=wrap;html=1;" parent="FzCJPSD5qMtwiWDOWthd-29" vertex="1">
                    <mxGeometry x="87.5" y="410" width="112.5" height="30" as="geometry"/>
                </mxCell>
                <mxCell id="FzCJPSD5qMtwiWDOWthd-38" value="" style="endArrow=classic;html=1;exitX=0;exitY=0.25;exitDx=0;exitDy=0;entryX=0.5;entryY=0;entryDx=0;entryDy=0;" parent="FzCJPSD5qMtwiWDOWthd-2" source="FzCJPSD5qMtwiWDOWthd-31" target="FzCJPSD5qMtwiWDOWthd-10" edge="1">
                    <mxGeometry width="50" height="50" relative="1" as="geometry">
                        <mxPoint x="235.32999999999987" y="100" as="sourcePoint"/>
                        <mxPoint x="235" y="180" as="targetPoint"/>
                        <Array as="points">
                            <mxPoint x="235" y="135"/>
                        </Array>
                    </mxGeometry>
                </mxCell>
                <mxCell id="FzCJPSD5qMtwiWDOWthd-39" value="" style="endArrow=classic;html=1;rounded=0;entryX=1;entryY=0.5;entryDx=0;entryDy=0;exitX=0;exitY=0.5;exitDx=0;exitDy=0;" parent="FzCJPSD5qMtwiWDOWthd-2" source="FzCJPSD5qMtwiWDOWthd-36" target="FzCJPSD5qMtwiWDOWthd-14" edge="1">
                    <mxGeometry width="50" height="50" relative="1" as="geometry">
                        <mxPoint x="590" y="350" as="sourcePoint"/>
                        <mxPoint x="465" y="300" as="targetPoint"/>
                        <Array as="points">
                            <mxPoint x="500" y="335"/>
                        </Array>
                    </mxGeometry>
                </mxCell>
                <mxCell id="FzCJPSD5qMtwiWDOWthd-40" value="" style="endArrow=classic;html=1;rounded=0;entryX=1;entryY=0.5;entryDx=0;entryDy=0;exitX=0;exitY=0.5;exitDx=0;exitDy=0;" parent="FzCJPSD5qMtwiWDOWthd-2" source="FzCJPSD5qMtwiWDOWthd-35" target="FzCJPSD5qMtwiWDOWthd-13" edge="1">
                    <mxGeometry width="50" height="50" relative="1" as="geometry">
                        <mxPoint x="590" y="350" as="sourcePoint"/>
                        <mxPoint x="460" y="290" as="targetPoint"/>
                        <Array as="points">
                            <mxPoint x="500" y="290"/>
                        </Array>
                    </mxGeometry>
                </mxCell>
                <mxCell id="FzCJPSD5qMtwiWDOWthd-41" value="" style="endArrow=classic;html=1;rounded=0;entryX=1;entryY=0.5;entryDx=0;entryDy=0;exitX=0;exitY=0.5;exitDx=0;exitDy=0;" parent="FzCJPSD5qMtwiWDOWthd-2" source="FzCJPSD5qMtwiWDOWthd-32" target="FzCJPSD5qMtwiWDOWthd-12" edge="1">
                    <mxGeometry width="50" height="50" relative="1" as="geometry">
                        <mxPoint x="590" y="290" as="sourcePoint"/>
                        <mxPoint x="460" y="200" as="targetPoint"/>
                        <Array as="points">
                            <mxPoint x="500" y="200"/>
                        </Array>
                    </mxGeometry>
                </mxCell>
                <mxCell id="FzCJPSD5qMtwiWDOWthd-42" value="" style="endArrow=classic;html=1;rounded=0;exitX=0;exitY=0.25;exitDx=0;exitDy=0;entryX=1;entryY=0.25;entryDx=0;entryDy=0;" parent="FzCJPSD5qMtwiWDOWthd-2" source="FzCJPSD5qMtwiWDOWthd-37" target="FzCJPSD5qMtwiWDOWthd-15" edge="1">
                    <mxGeometry width="50" height="50" relative="1" as="geometry">
                        <mxPoint x="560" y="400" as="sourcePoint"/>
                        <mxPoint x="460" y="390" as="targetPoint"/>
                        <Array as="points">
                            <mxPoint x="500" y="378"/>
                        </Array>
                    </mxGeometry>
                </mxCell>
                <mxCell id="FzCJPSD5qMtwiWDOWthd-43" value="" style="endArrow=classic;html=1;rounded=0;exitX=0;exitY=0.25;exitDx=0;exitDy=0;entryX=1;entryY=0.5;entryDx=0;entryDy=0;" parent="FzCJPSD5qMtwiWDOWthd-2" source="FzCJPSD5qMtwiWDOWthd-37" target="FzCJPSD5qMtwiWDOWthd-16" edge="1">
                    <mxGeometry width="50" height="50" relative="1" as="geometry">
                        <mxPoint x="580" y="420" as="sourcePoint"/>
                        <mxPoint x="460" y="440" as="targetPoint"/>
                        <Array as="points"/>
                    </mxGeometry>
                </mxCell>
                <mxCell id="FzCJPSD5qMtwiWDOWthd-44" value="" style="endArrow=classic;html=1;rounded=0;exitX=0;exitY=0.25;exitDx=0;exitDy=0;entryX=1;entryY=0.25;entryDx=0;entryDy=0;" parent="FzCJPSD5qMtwiWDOWthd-2" source="FzCJPSD5qMtwiWDOWthd-37" target="FzCJPSD5qMtwiWDOWthd-17" edge="1">
                    <mxGeometry width="50" height="50" relative="1" as="geometry">
                        <mxPoint x="560" y="440" as="sourcePoint"/>
                        <mxPoint x="460" y="490" as="targetPoint"/>
                        <Array as="points">
                            <mxPoint x="500" y="478"/>
                        </Array>
                    </mxGeometry>
                </mxCell>
                <mxCell id="FzCJPSD5qMtwiWDOWthd-45" value="" style="endArrow=classic;html=1;rounded=0;exitX=0;exitY=0.25;exitDx=0;exitDy=0;entryX=1;entryY=0.5;entryDx=0;entryDy=0;" parent="FzCJPSD5qMtwiWDOWthd-2" source="FzCJPSD5qMtwiWDOWthd-37" target="FzCJPSD5qMtwiWDOWthd-18" edge="1">
                    <mxGeometry width="50" height="50" relative="1" as="geometry">
                        <mxPoint x="590" y="450" as="sourcePoint"/>
                        <mxPoint x="460" y="530" as="targetPoint"/>
                        <Array as="points">
                            <mxPoint x="500" y="535"/>
                        </Array>
                    </mxGeometry>
                </mxCell>
                <mxCell id="FzCJPSD5qMtwiWDOWthd-46" value="" style="endArrow=classic;html=1;" parent="FzCJPSD5qMtwiWDOWthd-1" edge="1">
                    <mxGeometry width="50" height="50" relative="1" as="geometry">
                        <mxPoint x="110" y="120" as="sourcePoint"/>
                        <mxPoint x="170" y="120" as="targetPoint"/>
                    </mxGeometry>
                </mxCell>
                <mxCell id="FzCJPSD5qMtwiWDOWthd-47" value="" style="endArrow=classic;html=1;rounded=0;entryX=0;entryY=0.5;entryDx=0;entryDy=0;" parent="FzCJPSD5qMtwiWDOWthd-1" target="FzCJPSD5qMtwiWDOWthd-12" edge="1">
                    <mxGeometry width="50" height="50" relative="1" as="geometry">
                        <mxPoint x="480" y="240" as="sourcePoint"/>
                        <mxPoint x="530" y="240" as="targetPoint"/>
                    </mxGeometry>
                </mxCell>
                <mxCell id="FzCJPSD5qMtwiWDOWthd-48" value="" style="endArrow=classic;html=1;rounded=0;entryX=0;entryY=0.5;entryDx=0;entryDy=0;" parent="FzCJPSD5qMtwiWDOWthd-1" target="FzCJPSD5qMtwiWDOWthd-33" edge="1">
                    <mxGeometry width="50" height="50" relative="1" as="geometry">
                        <mxPoint x="480" y="240" as="sourcePoint"/>
                        <mxPoint x="530" y="280" as="targetPoint"/>
                        <Array as="points">
                            <mxPoint x="510" y="285"/>
                        </Array>
                    </mxGeometry>
                </mxCell>
                <mxCell id="FzCJPSD5qMtwiWDOWthd-49" value="" style="endArrow=classic;html=1;rounded=0;entryX=0;entryY=0.5;entryDx=0;entryDy=0;" parent="FzCJPSD5qMtwiWDOWthd-1" target="FzCJPSD5qMtwiWDOWthd-13" edge="1">
                    <mxGeometry width="50" height="50" relative="1" as="geometry">
                        <mxPoint x="480" y="240" as="sourcePoint"/>
                        <mxPoint x="530" y="330" as="targetPoint"/>
                        <Array as="points">
                            <mxPoint x="510" y="330"/>
                        </Array>
                    </mxGeometry>
                </mxCell>
                <mxCell id="FzCJPSD5qMtwiWDOWthd-50" value="Keuken-Type" style="swimlane;childLayout=stackLayout;resizeParent=1;resizeParentMax=0;startSize=20;" parent="FzCJPSD5qMtwiWDOWthd-1" vertex="1">
                    <mxGeometry x="190" y="1646" width="790" height="390" as="geometry">
                        <mxRectangle x="180" y="50" width="60" height="20" as="alternateBounds"/>
                    </mxGeometry>
                </mxCell>
                <mxCell id="FzCJPSD5qMtwiWDOWthd-51" value="Controller" style="swimlane;startSize=20;" parent="FzCJPSD5qMtwiWDOWthd-50" vertex="1">
                    <mxGeometry y="20" width="150" height="370" as="geometry"/>
                </mxCell>
                <mxCell id="FzCJPSD5qMtwiWDOWthd-52" value="Business Logic" style="swimlane;startSize=20;" parent="FzCJPSD5qMtwiWDOWthd-50" vertex="1">
                    <mxGeometry x="150" y="20" width="360" height="370" as="geometry"/>
                </mxCell>
                <mxCell id="FzCJPSD5qMtwiWDOWthd-53" value="Selecteer Keuken-Type" style="rounded=0;whiteSpace=wrap;html=1;" parent="FzCJPSD5qMtwiWDOWthd-52" vertex="1">
                    <mxGeometry x="32.5" y="170" width="105" height="40" as="geometry"/>
                </mxCell>
                <mxCell id="FzCJPSD5qMtwiWDOWthd-54" value="Model" style="swimlane;startSize=20;" parent="FzCJPSD5qMtwiWDOWthd-50" vertex="1">
                    <mxGeometry x="510" y="20" width="280" height="370" as="geometry"/>
                </mxCell>
                <mxCell id="FzCJPSD5qMtwiWDOWthd-55" value="Keuken-Type" style="swimlane;childLayout=stackLayout;horizontal=1;startSize=30;horizontalStack=0;rounded=1;fontSize=14;fontStyle=0;strokeWidth=2;resizeParent=0;resizeLast=1;shadow=0;dashed=0;align=center;" parent="FzCJPSD5qMtwiWDOWthd-54" vertex="1">
                    <mxGeometry x="60" y="70" width="160" height="90" as="geometry"/>
                </mxCell>
                <mxCell id="FzCJPSD5qMtwiWDOWthd-56" value="id&#10;record_type [K, T]&#10;omschrijving" style="align=left;strokeColor=none;fillColor=none;spacingLeft=4;fontSize=12;verticalAlign=top;resizable=0;rotatable=0;part=1;" parent="FzCJPSD5qMtwiWDOWthd-55" vertex="1">
                    <mxGeometry y="30" width="160" height="60" as="geometry"/>
                </mxCell>
                <mxCell id="FzCJPSD5qMtwiWDOWthd-57" value="" style="endArrow=classic;html=1;exitX=0;exitY=0.25;exitDx=0;exitDy=0;entryX=0.5;entryY=0;entryDx=0;entryDy=0;" parent="FzCJPSD5qMtwiWDOWthd-50" source="FzCJPSD5qMtwiWDOWthd-56" target="FzCJPSD5qMtwiWDOWthd-53" edge="1">
                    <mxGeometry width="50" height="50" relative="1" as="geometry">
                        <mxPoint x="235.32999999999987" y="100" as="sourcePoint"/>
                        <mxPoint x="235" y="180" as="targetPoint"/>
                        <Array as="points">
                            <mxPoint x="235" y="135"/>
                        </Array>
                    </mxGeometry>
                </mxCell>
                <mxCell id="FzCJPSD5qMtwiWDOWthd-58" value="" style="endArrow=classic;html=1;rounded=0;" parent="FzCJPSD5qMtwiWDOWthd-1" edge="1">
                    <mxGeometry width="50" height="50" relative="1" as="geometry">
                        <mxPoint x="480" y="240" as="sourcePoint"/>
                        <mxPoint x="540" y="370" as="targetPoint"/>
                        <Array as="points">
                            <mxPoint x="510" y="370"/>
                        </Array>
                    </mxGeometry>
                </mxCell>
                <mxCell id="FzCJPSD5qMtwiWDOWthd-59" value="Ingredient" style="swimlane;childLayout=stackLayout;resizeParent=1;resizeParentMax=0;startSize=20;" parent="FzCJPSD5qMtwiWDOWthd-1" vertex="1">
                    <mxGeometry x="190" y="821" width="790" height="390" as="geometry">
                        <mxRectangle x="180" y="50" width="60" height="20" as="alternateBounds"/>
                    </mxGeometry>
                </mxCell>
                <mxCell id="FzCJPSD5qMtwiWDOWthd-60" value="Controller" style="swimlane;startSize=20;" parent="FzCJPSD5qMtwiWDOWthd-59" vertex="1">
                    <mxGeometry y="20" width="150" height="370" as="geometry"/>
                </mxCell>
                <mxCell id="FzCJPSD5qMtwiWDOWthd-61" value="Business Logic" style="swimlane;startSize=20;" parent="FzCJPSD5qMtwiWDOWthd-59" vertex="1">
                    <mxGeometry x="150" y="20" width="360" height="370" as="geometry"/>
                </mxCell>
                <mxCell id="FzCJPSD5qMtwiWDOWthd-62" value="Selecteer Ingredient" style="rounded=0;whiteSpace=wrap;html=1;" parent="FzCJPSD5qMtwiWDOWthd-61" vertex="1">
                    <mxGeometry x="32.5" y="170" width="105" height="40" as="geometry"/>
                </mxCell>
                <mxCell id="FzCJPSD5qMtwiWDOWthd-63" value="Ophalen Artikel" style="rounded=0;whiteSpace=wrap;html=1;" parent="FzCJPSD5qMtwiWDOWthd-61" vertex="1">
                    <mxGeometry x="200" y="175" width="110" height="30" as="geometry"/>
                </mxCell>
                <mxCell id="FzCJPSD5qMtwiWDOWthd-64" value="" style="endArrow=classic;html=1;rounded=0;exitX=1;exitY=0.5;exitDx=0;exitDy=0;entryX=0;entryY=0.5;entryDx=0;entryDy=0;" parent="FzCJPSD5qMtwiWDOWthd-61" source="FzCJPSD5qMtwiWDOWthd-62" target="FzCJPSD5qMtwiWDOWthd-63" edge="1">
                    <mxGeometry width="50" height="50" relative="1" as="geometry">
                        <mxPoint x="150" y="190" as="sourcePoint"/>
                        <mxPoint x="190" y="190" as="targetPoint"/>
                    </mxGeometry>
                </mxCell>
                <mxCell id="FzCJPSD5qMtwiWDOWthd-69" value="Model" style="swimlane;startSize=20;" parent="FzCJPSD5qMtwiWDOWthd-59" vertex="1">
                    <mxGeometry x="510" y="20" width="280" height="370" as="geometry"/>
                </mxCell>
                <mxCell id="FzCJPSD5qMtwiWDOWthd-70" value="Ingredient" style="swimlane;childLayout=stackLayout;horizontal=1;startSize=30;horizontalStack=0;rounded=1;fontSize=14;fontStyle=0;strokeWidth=2;resizeParent=0;resizeLast=1;shadow=0;dashed=0;align=center;" parent="FzCJPSD5qMtwiWDOWthd-69" vertex="1">
                    <mxGeometry x="60" y="70" width="160" height="100" as="geometry"/>
                </mxCell>
                <mxCell id="FzCJPSD5qMtwiWDOWthd-71" value="id&#10;gerecht_id&#10;artikel_id&#10;aantal" style="align=left;strokeColor=none;fillColor=none;spacingLeft=4;fontSize=12;verticalAlign=top;resizable=0;rotatable=0;part=1;" parent="FzCJPSD5qMtwiWDOWthd-70" vertex="1">
                    <mxGeometry y="30" width="160" height="70" as="geometry"/>
                </mxCell>
                <mxCell id="FzCJPSD5qMtwiWDOWthd-72" value="Selecteer Artikel" style="rounded=0;whiteSpace=wrap;html=1;" parent="FzCJPSD5qMtwiWDOWthd-69" vertex="1">
                    <mxGeometry x="83.75" y="210" width="112.5" height="30" as="geometry"/>
                </mxCell>
                <mxCell id="FzCJPSD5qMtwiWDOWthd-73" value="" style="endArrow=classic;html=1;startArrow=none;exitX=0;exitY=0.25;exitDx=0;exitDy=0;entryX=0.5;entryY=0;entryDx=0;entryDy=0;" parent="FzCJPSD5qMtwiWDOWthd-59" source="FzCJPSD5qMtwiWDOWthd-71" target="FzCJPSD5qMtwiWDOWthd-62" edge="1">
                    <mxGeometry width="50" height="50" relative="1" as="geometry">
                        <mxPoint x="350" y="130" as="sourcePoint"/>
                        <mxPoint x="235" y="180" as="targetPoint"/>
                        <Array as="points">
                            <mxPoint x="235" y="138"/>
                        </Array>
                    </mxGeometry>
                </mxCell>
                <mxCell id="FzCJPSD5qMtwiWDOWthd-74" value="" style="endArrow=classic;html=1;rounded=0;entryX=1;entryY=0.5;entryDx=0;entryDy=0;exitX=0;exitY=0.5;exitDx=0;exitDy=0;" parent="FzCJPSD5qMtwiWDOWthd-59" source="FzCJPSD5qMtwiWDOWthd-72" target="FzCJPSD5qMtwiWDOWthd-63" edge="1">
                    <mxGeometry width="50" height="50" relative="1" as="geometry">
                        <mxPoint x="590" y="240" as="sourcePoint"/>
                        <mxPoint x="470" y="210" as="targetPoint"/>
                        <Array as="points">
                            <mxPoint x="500" y="210"/>
                        </Array>
                    </mxGeometry>
                </mxCell>
                <mxCell id="FzCJPSD5qMtwiWDOWthd-75" value="Artikel" style="swimlane;childLayout=stackLayout;resizeParent=1;resizeParentMax=0;startSize=20;" parent="FzCJPSD5qMtwiWDOWthd-1" vertex="1">
                    <mxGeometry x="190" y="1232" width="790" height="390" as="geometry">
                        <mxRectangle x="180" y="50" width="60" height="20" as="alternateBounds"/>
                    </mxGeometry>
                </mxCell>
                <mxCell id="FzCJPSD5qMtwiWDOWthd-76" value="Controller" style="swimlane;startSize=20;" parent="FzCJPSD5qMtwiWDOWthd-75" vertex="1">
                    <mxGeometry y="20" width="150" height="370" as="geometry"/>
                </mxCell>
                <mxCell id="FzCJPSD5qMtwiWDOWthd-77" value="Business Logic" style="swimlane;startSize=20;" parent="FzCJPSD5qMtwiWDOWthd-75" vertex="1">
                    <mxGeometry x="150" y="20" width="360" height="370" as="geometry"/>
                </mxCell>
                <mxCell id="FzCJPSD5qMtwiWDOWthd-78" value="Selecteer Artikel" style="rounded=0;whiteSpace=wrap;html=1;" parent="FzCJPSD5qMtwiWDOWthd-77" vertex="1">
                    <mxGeometry x="32.5" y="170" width="105" height="40" as="geometry"/>
                </mxCell>
                <mxCell id="FzCJPSD5qMtwiWDOWthd-79" value="Model" style="swimlane;startSize=20;" parent="FzCJPSD5qMtwiWDOWthd-75" vertex="1">
                    <mxGeometry x="510" y="20" width="280" height="370" as="geometry"/>
                </mxCell>
                <mxCell id="FzCJPSD5qMtwiWDOWthd-80" value="Artikel" style="swimlane;childLayout=stackLayout;horizontal=1;startSize=30;horizontalStack=0;rounded=1;fontSize=14;fontStyle=0;strokeWidth=2;resizeParent=0;resizeLast=1;shadow=0;dashed=0;align=center;" parent="FzCJPSD5qMtwiWDOWthd-79" vertex="1">
                    <mxGeometry x="60" y="70" width="160" height="140" as="geometry"/>
                </mxCell>
                <mxCell id="FzCJPSD5qMtwiWDOWthd-81" value="id&#10;naam&#10;omschrijving&#10;prijs&#10;eenheid&#10;verpakking&#10;calorieën" style="align=left;strokeColor=none;fillColor=none;spacingLeft=4;fontSize=12;verticalAlign=top;resizable=0;rotatable=0;part=1;" parent="FzCJPSD5qMtwiWDOWthd-80" vertex="1">
                    <mxGeometry y="30" width="160" height="110" as="geometry"/>
                </mxCell>
                <mxCell id="FzCJPSD5qMtwiWDOWthd-82" value="" style="endArrow=classic;html=1;exitX=0;exitY=0.25;exitDx=0;exitDy=0;entryX=0.5;entryY=0;entryDx=0;entryDy=0;" parent="FzCJPSD5qMtwiWDOWthd-75" source="FzCJPSD5qMtwiWDOWthd-81" target="FzCJPSD5qMtwiWDOWthd-78" edge="1">
                    <mxGeometry width="50" height="50" relative="1" as="geometry">
                        <mxPoint x="235.32999999999987" y="100" as="sourcePoint"/>
                        <mxPoint x="235" y="180" as="targetPoint"/>
                        <Array as="points">
                            <mxPoint x="235" y="148"/>
                        </Array>
                    </mxGeometry>
                </mxCell>
                <mxCell id="FzCJPSD5qMtwiWDOWthd-83" value="Gerecht-Info" style="swimlane;childLayout=stackLayout;resizeParent=1;resizeParentMax=0;startSize=20;" parent="FzCJPSD5qMtwiWDOWthd-1" vertex="1">
                    <mxGeometry x="190" y="2054" width="790" height="390" as="geometry">
                        <mxRectangle x="180" y="50" width="60" height="20" as="alternateBounds"/>
                    </mxGeometry>
                </mxCell>
                <mxCell id="FzCJPSD5qMtwiWDOWthd-84" value="Controller" style="swimlane;startSize=20;" parent="FzCJPSD5qMtwiWDOWthd-83" vertex="1">
                    <mxGeometry y="20" width="150" height="370" as="geometry"/>
                </mxCell>
                <mxCell id="FzCJPSD5qMtwiWDOWthd-85" value="Business Logic" style="swimlane;startSize=20;" parent="FzCJPSD5qMtwiWDOWthd-83" vertex="1">
                    <mxGeometry x="150" y="20" width="360" height="370" as="geometry"/>
                </mxCell>
                <mxCell id="FzCJPSD5qMtwiWDOWthd-86" value="Selecteer Gerecht-Info" style="rounded=0;whiteSpace=wrap;html=1;" parent="FzCJPSD5qMtwiWDOWthd-85" vertex="1">
                    <mxGeometry x="32.5" y="170" width="105" height="40" as="geometry"/>
                </mxCell>
                <mxCell id="Pml_Iudp1cUBwZUB4Yd2-0" value="Ophalen User" style="rounded=0;whiteSpace=wrap;html=1;" parent="FzCJPSD5qMtwiWDOWthd-85" vertex="1">
                    <mxGeometry x="192.5" y="180" width="105" height="20" as="geometry"/>
                </mxCell>
                <mxCell id="Pml_Iudp1cUBwZUB4Yd2-1" value="" style="endArrow=classic;html=1;rounded=0;exitX=1;exitY=0.5;exitDx=0;exitDy=0;entryX=0;entryY=0.5;entryDx=0;entryDy=0;" parent="FzCJPSD5qMtwiWDOWthd-85" source="FzCJPSD5qMtwiWDOWthd-86" target="Pml_Iudp1cUBwZUB4Yd2-0" edge="1">
                    <mxGeometry width="50" height="50" relative="1" as="geometry">
                        <mxPoint x="190" y="96" as="sourcePoint"/>
                        <mxPoint x="240" y="46" as="targetPoint"/>
                    </mxGeometry>
                </mxCell>
                <mxCell id="FzCJPSD5qMtwiWDOWthd-87" value="Model" style="swimlane;startSize=20;" parent="FzCJPSD5qMtwiWDOWthd-83" vertex="1">
                    <mxGeometry x="510" y="20" width="280" height="370" as="geometry"/>
                </mxCell>
                <mxCell id="FzCJPSD5qMtwiWDOWthd-88" value="Gerecht-Info" style="swimlane;childLayout=stackLayout;horizontal=1;startSize=30;horizontalStack=0;rounded=1;fontSize=14;fontStyle=0;strokeWidth=2;resizeParent=0;resizeLast=1;shadow=0;dashed=0;align=center;" parent="FzCJPSD5qMtwiWDOWthd-87" vertex="1">
                    <mxGeometry x="60" y="70" width="160" height="140" as="geometry"/>
                </mxCell>
                <mxCell id="FzCJPSD5qMtwiWDOWthd-89" value="id&#10;record-type [O, B, W, F]&#10;gerecht_id&#10;user_id&#10;datum&#10;nummeriekveld&#10;tekstveld" style="align=left;strokeColor=none;fillColor=none;spacingLeft=4;fontSize=12;verticalAlign=top;resizable=0;rotatable=0;part=1;" parent="FzCJPSD5qMtwiWDOWthd-88" vertex="1">
                    <mxGeometry y="30" width="160" height="110" as="geometry"/>
                </mxCell>
                <mxCell id="Pml_Iudp1cUBwZUB4Yd2-2" value="Selecteer User" style="rounded=0;whiteSpace=wrap;html=1;" parent="FzCJPSD5qMtwiWDOWthd-87" vertex="1">
                    <mxGeometry x="83.75" y="236" width="112.5" height="30" as="geometry"/>
                </mxCell>
                <mxCell id="FzCJPSD5qMtwiWDOWthd-90" value="" style="endArrow=classic;html=1;exitX=0;exitY=0.25;exitDx=0;exitDy=0;entryX=0.5;entryY=0;entryDx=0;entryDy=0;" parent="FzCJPSD5qMtwiWDOWthd-83" source="FzCJPSD5qMtwiWDOWthd-89" target="FzCJPSD5qMtwiWDOWthd-86" edge="1">
                    <mxGeometry width="50" height="50" relative="1" as="geometry">
                        <mxPoint x="235.32999999999987" y="100" as="sourcePoint"/>
                        <mxPoint x="235" y="180" as="targetPoint"/>
                        <Array as="points">
                            <mxPoint x="235" y="150"/>
                        </Array>
                    </mxGeometry>
                </mxCell>
                <mxCell id="Pml_Iudp1cUBwZUB4Yd2-3" value="" style="endArrow=classic;html=1;rounded=0;exitX=0;exitY=0.5;exitDx=0;exitDy=0;entryX=1;entryY=0.5;entryDx=0;entryDy=0;" parent="FzCJPSD5qMtwiWDOWthd-83" source="Pml_Iudp1cUBwZUB4Yd2-2" target="Pml_Iudp1cUBwZUB4Yd2-0" edge="1">
                    <mxGeometry width="50" height="50" relative="1" as="geometry">
                        <mxPoint x="500" y="246" as="sourcePoint"/>
                        <mxPoint x="550" y="196" as="targetPoint"/>
                    </mxGeometry>
                </mxCell>
                <mxCell id="FzCJPSD5qMtwiWDOWthd-91" value="User" style="swimlane;childLayout=stackLayout;resizeParent=1;resizeParentMax=0;startSize=20;" parent="FzCJPSD5qMtwiWDOWthd-1" vertex="1">
                    <mxGeometry x="190" y="2465" width="790" height="390" as="geometry">
                        <mxRectangle x="180" y="50" width="60" height="20" as="alternateBounds"/>
                    </mxGeometry>
                </mxCell>
                <mxCell id="FzCJPSD5qMtwiWDOWthd-92" value="Controller" style="swimlane;startSize=20;" parent="FzCJPSD5qMtwiWDOWthd-91" vertex="1">
                    <mxGeometry y="20" width="150" height="370" as="geometry"/>
                </mxCell>
                <mxCell id="FzCJPSD5qMtwiWDOWthd-93" value="Business Logic" style="swimlane;startSize=20;" parent="FzCJPSD5qMtwiWDOWthd-91" vertex="1">
                    <mxGeometry x="150" y="20" width="360" height="370" as="geometry"/>
                </mxCell>
                <mxCell id="FzCJPSD5qMtwiWDOWthd-94" value="Selecteer User" style="rounded=0;whiteSpace=wrap;html=1;" parent="FzCJPSD5qMtwiWDOWthd-93" vertex="1">
                    <mxGeometry x="32.5" y="170" width="105" height="40" as="geometry"/>
                </mxCell>
                <mxCell id="FzCJPSD5qMtwiWDOWthd-95" value="Model" style="swimlane;startSize=20;" parent="FzCJPSD5qMtwiWDOWthd-91" vertex="1">
                    <mxGeometry x="510" y="20" width="280" height="370" as="geometry"/>
                </mxCell>
                <mxCell id="FzCJPSD5qMtwiWDOWthd-96" value="User" style="swimlane;childLayout=stackLayout;horizontal=1;startSize=30;horizontalStack=0;rounded=1;fontSize=14;fontStyle=0;strokeWidth=2;resizeParent=0;resizeLast=1;shadow=0;dashed=0;align=center;" parent="FzCJPSD5qMtwiWDOWthd-95" vertex="1">
                    <mxGeometry x="60" y="70" width="160" height="120" as="geometry"/>
                </mxCell>
                <mxCell id="FzCJPSD5qMtwiWDOWthd-97" value="id&#10;username&#10;password&#10;email&#10;afbeelding" style="align=left;strokeColor=none;fillColor=none;spacingLeft=4;fontSize=12;verticalAlign=top;resizable=0;rotatable=0;part=1;" parent="FzCJPSD5qMtwiWDOWthd-96" vertex="1">
                    <mxGeometry y="30" width="160" height="90" as="geometry"/>
                </mxCell>
                <mxCell id="FzCJPSD5qMtwiWDOWthd-98" value="" style="endArrow=classic;html=1;exitX=0;exitY=0.25;exitDx=0;exitDy=0;entryX=0.5;entryY=0;entryDx=0;entryDy=0;" parent="FzCJPSD5qMtwiWDOWthd-91" source="FzCJPSD5qMtwiWDOWthd-97" target="FzCJPSD5qMtwiWDOWthd-94" edge="1">
                    <mxGeometry width="50" height="50" relative="1" as="geometry">
                        <mxPoint x="235.32999999999987" y="100" as="sourcePoint"/>
                        <mxPoint x="235" y="180" as="targetPoint"/>
                        <Array as="points">
                            <mxPoint x="235" y="143"/>
                        </Array>
                    </mxGeometry>
                </mxCell>
                <mxCell id="FzCJPSD5qMtwiWDOWthd-99" value="Actor" style="shape=umlActor;verticalLabelPosition=bottom;verticalAlign=top;html=1;outlineConnect=0;" parent="FzCJPSD5qMtwiWDOWthd-1" vertex="1">
                    <mxGeometry x="60" y="90" width="30" height="60" as="geometry"/>
                </mxCell>
            </root>
        </mxGraphModel>
    </diagram>
</mxfile>